<svg xmlns="http://www.w3.org/2000/svg" width="1181px" height="2362px" viewBox="0 0 1181 2362">
<metadata>Flyer horizontal mínimo / 01_flyer_base / vectorizado</metadata>
<g id="fondo_editable"><rect x="0" y="0" width="1181" height="2362" fill="#F6EFE3"/></g>
<g id="elementos_globales">
<rect x="80" y="80" width="2640" height="1840" rx="70" fill="none" stroke="#D9CEC0" stroke-width="5"/>
<path d="M 124.043 131.921 L 134.568 131.921 L 141.869 149.088 L 149.219 131.921 L 159.724 131.921 L 159.724 164.000 L 151.907 164.000 L 151.907 140.536 L 144.516 157.833 L 139.271 157.833 L 131.880 140.536 L 131.880 164.000 L 124.043 164.000 L 124.043 131.921 Z M 178.266 153.172 Q 175.859 153.172 174.642 153.990 Q 173.433 154.801 173.433 156.396 Q 173.433 157.854 174.409 158.686 Q 175.392 159.511 177.131 159.511 Q 179.297 159.511 180.782 157.957 Q 182.267 156.396 182.267 154.052 L 182.267 153.172 L 178.266 153.172 Z M 190.022 150.271 L 190.022 164.000 L 182.267 164.000 L 182.267 160.432 Q 180.720 162.625 178.781 163.629 Q 176.849 164.626 174.079 164.626 Q 170.339 164.626 168.008 162.446 Q 165.678 160.260 165.678 156.781 Q 165.678 152.546 168.586 150.573 Q 171.501 148.593 177.729 148.593 L 182.267 148.593 L 182.267 147.995 Q 182.267 146.166 180.823 145.321 Q 179.386 144.468 176.334 144.468 Q 173.866 144.468 171.734 144.963 Q 169.610 145.458 167.781 146.448 L 167.781 140.584 Q 170.256 139.979 172.745 139.669 Q 175.241 139.360 177.729 139.360 Q 184.240 139.360 187.127 141.924 Q 190.022 144.489 190.022 150.271 Z M 215.054 146.489 Q 214.043 146.015 213.039 145.795 Q 212.043 145.568 211.032 145.568 Q 208.069 145.568 206.467 147.472 Q 204.865 149.370 204.865 152.911 L 204.865 164.000 L 197.179 164.000 L 197.179 139.938 L 204.865 139.938 L 204.865 143.891 Q 206.350 141.526 208.268 140.446 Q 210.193 139.360 212.881 139.360 Q 213.266 139.360 213.713 139.394 Q 214.167 139.422 215.026 139.532 L 215.054 146.489 Z M 238.319 140.687 L 238.319 146.964 Q 236.751 145.891 235.170 145.376 Q 233.589 144.860 231.891 144.860 Q 228.673 144.860 226.879 146.737 Q 225.084 148.614 225.084 151.989 Q 225.084 155.365 226.879 157.249 Q 228.673 159.126 231.891 159.126 Q 233.699 159.126 235.321 158.589 Q 236.944 158.046 238.319 156.994 L 238.319 163.292 Q 236.511 163.959 234.654 164.289 Q 232.798 164.626 230.928 164.626 Q 224.418 164.626 220.739 161.284 Q 217.068 157.943 217.068 151.989 Q 217.068 146.036 220.739 142.701 Q 224.418 139.360 230.928 139.360 Q 232.819 139.360 234.654 139.690 Q 236.490 140.020 238.319 140.687 Z M 255.740 153.172 Q 253.334 153.172 252.117 153.990 Q 250.907 154.801 250.907 156.396 Q 250.907 157.854 251.883 158.686 Q 252.866 159.511 254.606 159.511 Q 256.771 159.511 258.256 157.957 Q 259.741 156.396 259.741 154.052 L 259.741 153.172 L 255.740 153.172 Z M 267.496 150.271 L 267.496 164.000 L 259.741 164.000 L 259.741 160.432 Q 258.194 162.625 256.256 163.629 Q 254.324 164.626 251.553 164.626 Q 247.813 164.626 245.483 162.446 Q 243.152 160.260 243.152 156.781 Q 243.152 152.546 246.060 150.573 Q 248.975 148.593 255.204 148.593 L 259.741 148.593 L 259.741 147.995 Q 259.741 146.166 258.298 145.321 Q 256.861 144.468 253.808 144.468 Q 251.340 144.468 249.209 144.963 Q 247.084 145.458 245.256 146.448 L 245.256 140.584 Q 247.731 139.979 250.219 139.669 Q 252.715 139.360 255.204 139.360 Q 261.714 139.360 264.602 141.924 Q 267.496 144.489 267.496 150.271 Z" fill="#161513"/>
<path d="M 121.313 1821.921 L 129.240 1821.921 L 134.781 1845.234 L 140.281 1821.921 L 148.249 1821.921 L 153.749 1845.234 L 159.298 1821.921 L 167.156 1821.921 L 159.593 1854.000 L 150.058 1854.000 L 144.234 1829.614 L 138.480 1854.000 L 128.938 1854.000 L 121.313 1821.921 Z M 172.573 1821.921 L 194.889 1821.921 L 194.889 1828.178 L 180.844 1828.178 L 180.844 1834.145 L 194.058 1834.145 L 194.058 1840.401 L 180.844 1840.401 L 180.844 1847.751 L 195.364 1847.751 L 195.364 1854.000 L 172.573 1854.000 L 172.573 1821.921 Z M 215.473 1834.344 Q 217.433 1834.344 218.436 1833.485 Q 219.447 1832.626 219.447 1830.948 Q 219.447 1829.291 218.436 1828.425 Q 217.433 1827.552 215.473 1827.552 L 210.901 1827.552 L 210.901 1834.344 L 215.473 1834.344 Z M 215.755 1848.369 Q 218.244 1848.369 219.502 1847.318 Q 220.760 1846.266 220.760 1844.141 Q 220.760 1842.051 219.516 1841.013 Q 218.271 1839.968 215.755 1839.968 L 210.901 1839.968 L 210.901 1848.369 L 215.755 1848.369 Z M 223.448 1836.833 Q 226.109 1837.610 227.566 1839.693 Q 229.031 1841.776 229.031 1844.801 Q 229.031 1849.442 225.896 1851.724 Q 222.761 1854.000 216.353 1854.000 L 202.631 1854.000 L 202.631 1821.921 L 215.047 1821.921 Q 221.729 1821.921 224.727 1823.943 Q 227.724 1825.964 227.724 1830.412 Q 227.724 1832.749 226.624 1834.392 Q 225.531 1836.036 223.448 1836.833 Z M 236.614 1845.688 L 244.348 1845.688 L 244.348 1854.000 L 236.614 1854.000 L 236.614 1845.688 Z M 278.317 1852.240 Q 276.035 1853.422 273.567 1854.021 Q 271.099 1854.626 268.411 1854.626 Q 260.394 1854.626 255.713 1850.143 Q 251.031 1845.661 251.031 1837.995 Q 251.031 1830.302 255.713 1825.826 Q 260.394 1821.344 268.411 1821.344 Q 271.099 1821.344 273.567 1821.949 Q 276.035 1822.547 278.317 1823.729 L 278.317 1830.364 Q 276.014 1828.796 273.780 1828.068 Q 271.546 1827.339 269.077 1827.339 Q 264.650 1827.339 262.113 1830.178 Q 259.583 1833.011 259.583 1837.995 Q 259.583 1842.959 262.113 1845.798 Q 264.650 1848.631 269.077 1848.631 Q 271.546 1848.631 273.780 1847.902 Q 276.014 1847.166 278.317 1845.599 L 278.317 1852.240 Z M 285.172 1821.921 L 293.442 1821.921 L 293.442 1847.751 L 307.962 1847.751 L 307.962 1854.000 L 285.172 1854.000 L 285.172 1821.921 Z" fill="#173F2F"/>
</g>
<g id="elementos_documento">
<path d="M 120.630 345.222 L 207.973 345.222 L 207.973 363.706 L 176.550 363.706 L 176.550 440.000 L 152.114 440.000 L 152.114 363.706 L 120.630 363.706 L 120.630 345.222 Z M 220.628 345.222 L 245.064 345.222 L 245.064 440.000 L 220.628 440.000 L 220.628 345.222 Z M 234.522 319.445 L 252.498 319.445 L 234.400 336.203 L 221.969 336.203 L 234.522 319.445 Z M 257.678 345.222 L 345.022 345.222 L 345.022 363.706 L 313.598 363.706 L 313.598 440.000 L 289.163 440.000 L 289.163 363.706 L 257.678 363.706 L 257.678 345.222 Z M 357.677 345.222 L 382.113 345.222 L 382.113 402.036 Q 382.113 413.777 385.952 418.834 Q 389.791 423.872 398.484 423.872 Q 407.239 423.872 411.078 418.834 Q 414.917 413.777 414.917 402.036 L 414.917 345.222 L 439.353 345.222 L 439.353 402.036 Q 439.353 422.166 429.258 432.017 Q 419.183 441.848 398.484 441.848 Q 377.847 441.848 367.752 432.017 Q 357.677 422.166 357.677 402.036 L 357.677 345.222 Z M 463.241 345.222 L 487.677 345.222 L 487.677 421.536 L 530.577 421.536 L 530.577 440.000 L 463.241 440.000 L 463.241 345.222 Z M 584.730 361.228 Q 573.558 361.228 567.403 369.475 Q 561.248 377.722 561.248 392.712 Q 561.248 407.622 567.403 415.889 Q 573.558 424.136 584.730 424.136 Q 595.963 424.136 602.117 415.889 Q 608.272 407.622 608.272 392.712 Q 608.272 377.722 602.117 369.475 Q 595.963 361.228 584.730 361.228 Z M 584.730 343.516 Q 607.581 343.516 620.520 356.597 Q 633.480 369.658 633.480 392.712 Q 633.480 415.686 620.520 428.767 Q 607.581 441.848 584.730 441.848 Q 561.939 441.848 548.959 428.767 Q 535.980 415.686 535.980 392.712 Q 535.980 369.658 548.959 356.597 Q 561.939 343.516 584.730 343.516 Z M 697.220 345.222 L 737.764 345.222 Q 755.863 345.222 765.531 353.266 Q 775.220 361.289 775.220 376.137 Q 775.220 391.067 765.531 399.091 Q 755.863 407.114 737.764 407.114 L 721.656 407.114 L 721.656 440.000 L 697.220 440.000 L 697.220 345.222 Z M 721.656 362.934 L 721.656 389.402 L 735.164 389.402 Q 742.273 389.402 746.153 385.948 Q 750.033 382.495 750.033 376.137 Q 750.033 369.800 746.153 366.367 Q 742.273 362.934 735.164 362.934 L 721.656 362.934 Z M 827.220 387.248 Q 834.898 387.248 838.230 384.405 Q 841.561 381.541 841.561 375.000 Q 841.561 368.520 838.230 365.738 Q 834.898 362.934 827.220 362.934 L 816.942 362.934 L 816.942 387.248 L 827.220 387.248 Z M 816.942 404.128 L 816.942 440.000 L 792.506 440.000 L 792.506 345.222 L 829.820 345.222 Q 848.548 345.222 857.263 351.519 Q 865.997 357.795 865.997 371.384 Q 865.997 380.769 861.447 386.802 Q 856.917 392.834 847.777 395.698 Q 852.794 396.836 856.755 400.878 Q 860.736 404.900 864.798 413.086 L 878.062 440.000 L 852.042 440.000 L 840.484 416.458 Q 836.991 409.348 833.395 406.748 Q 829.820 404.128 823.848 404.128 L 816.942 404.128 Z M 892.606 345.222 L 917.042 345.222 L 917.042 440.000 L 892.606 440.000 L 892.606 345.222 Z M 940.970 345.222 L 968.250 345.222 L 1002.720 410.222 L 1002.720 345.222 L 1025.897 345.222 L 1025.897 440.000 L 998.597 440.000 L 964.127 375.000 L 964.127 440.000 L 940.970 440.000 L 940.970 345.222 Z M 1124.920 434.800 Q 1118.177 438.294 1110.884 440.061 Q 1103.592 441.848 1095.650 441.848 Q 1071.966 441.848 1058.133 428.605 Q 1044.300 415.361 1044.300 392.712 Q 1044.300 369.983 1058.133 356.759 Q 1071.966 343.516 1095.650 343.516 Q 1103.592 343.516 1110.884 345.303 Q 1118.177 347.070 1124.920 350.564 L 1124.920 370.166 Q 1118.116 365.534 1111.514 363.381 Q 1104.912 361.228 1097.620 361.228 Q 1084.539 361.228 1077.044 369.617 Q 1069.569 377.986 1069.569 392.712 Q 1069.569 407.378 1077.044 415.767 Q 1084.539 424.136 1097.620 424.136 Q 1104.912 424.136 1111.514 421.983 Q 1118.116 419.809 1124.920 415.178 L 1124.920 434.800 Z M 1145.172 345.222 L 1169.608 345.222 L 1169.608 440.000 L 1145.172 440.000 L 1145.172 345.222 Z M 1193.536 345.222 L 1234.080 345.222 Q 1252.178 345.222 1261.847 353.266 Q 1271.536 361.289 1271.536 376.137 Q 1271.536 391.067 1261.847 399.091 Q 1252.178 407.114 1234.080 407.114 L 1217.972 407.114 L 1217.972 440.000 L 1193.536 440.000 L 1193.536 345.222 Z M 1217.972 362.934 L 1217.972 389.402 L 1231.480 389.402 Q 1238.589 389.402 1242.469 385.948 Q 1246.348 382.495 1246.348 376.137 Q 1246.348 369.800 1242.469 366.367 Q 1238.589 362.934 1231.480 362.934 L 1217.972 362.934 Z M 1334.403 422.734 L 1296.195 422.734 L 1290.163 440.000 L 1265.584 440.000 L 1300.684 345.222 L 1329.833 345.222 L 1364.933 440.000 L 1340.375 440.000 L 1334.403 422.734 Z M 1302.289 405.144 L 1328.248 405.144 L 1315.289 367.444 L 1302.289 405.144 Z M 1377.506 345.222 L 1401.942 345.222 L 1401.942 421.536 L 1444.842 421.536 L 1444.842 440.000 L 1377.506 440.000 L 1377.506 345.222 Z" fill="#161513"/>
<rect x="120" y="620" width="2560" height="980" rx="50" fill="#FFFFFF" stroke="#D9CEC0" stroke-width="3" opacity="0.7"/>
<path d="M 218.461 739.879 L 211.230 759.471 L 225.709 759.471 L 218.461 739.879 Z M 215.449 734.631 L 221.490 734.631 L 236.492 774.000 L 230.957 774.000 L 227.371 763.900 L 209.627 763.900 L 206.041 774.000 L 200.422 774.000 L 215.449 734.631 Z M 243.985 759.260 Q 243.985 764.609 246.187 767.655 Q 248.389 770.701 252.237 770.701 Q 256.084 770.701 258.295 767.655 Q 260.514 764.609 260.514 759.260 Q 260.514 753.910 258.295 750.864 Q 256.084 747.818 252.237 747.818 Q 248.389 747.818 246.187 750.864 Q 243.985 753.910 243.985 759.260 Z M 260.514 769.570 Q 258.987 772.203 256.649 773.485 Q 254.321 774.768 251.047 774.768 Q 245.697 774.768 242.331 770.498 Q 238.973 766.221 238.973 759.260 Q 238.973 752.299 242.331 748.029 Q 245.697 743.760 251.047 743.760 Q 254.321 743.760 256.649 745.043 Q 258.987 746.317 260.514 748.949 L 260.514 744.469 L 265.365 744.469 L 265.365 785.230 L 260.514 785.230 L 260.514 769.570 Z M 274.866 762.348 L 274.866 744.469 L 279.717 744.469 L 279.717 762.162 Q 279.717 766.356 281.346 768.457 Q 282.983 770.549 286.257 770.549 Q 290.180 770.549 292.458 768.043 Q 294.745 765.537 294.745 761.209 L 294.745 744.469 L 299.596 744.469 L 299.596 774.000 L 294.745 774.000 L 294.745 769.461 Q 292.981 772.152 290.644 773.460 Q 288.315 774.768 285.227 774.768 Q 280.139 774.768 277.498 771.604 Q 274.866 768.440 274.866 762.348 Z M 287.075 743.760 L 287.075 743.760 Z M 315.678 730.808 L 320.926 730.808 L 312.337 740.722 L 308.295 740.722 L 315.678 730.808 Z M 309.586 744.469 L 314.438 744.469 L 314.438 774.000 L 309.586 774.000 L 309.586 744.469 Z M 312.016 743.760 L 312.016 743.760 Z M 338.274 744.469 L 343.412 744.469 L 352.643 769.250 L 361.873 744.469 L 367.012 744.469 L 355.933 774.000 L 349.344 774.000 L 338.274 744.469 Z M 387.135 759.158 Q 381.254 759.158 378.985 760.500 Q 376.715 761.842 376.715 765.090 Q 376.715 767.672 378.419 769.191 Q 380.124 770.701 383.043 770.701 Q 387.085 770.701 389.523 767.841 Q 391.962 764.980 391.962 760.238 L 391.962 759.158 L 387.135 759.158 Z M 396.813 757.150 L 396.813 774.000 L 391.962 774.000 L 391.962 769.520 Q 390.299 772.203 387.819 773.485 Q 385.338 774.768 381.752 774.768 Q 377.221 774.768 374.538 772.220 Q 371.863 769.672 371.863 765.402 Q 371.863 760.424 375.196 757.893 Q 378.538 755.362 385.153 755.362 L 391.962 755.362 L 391.962 754.881 Q 391.962 751.531 389.759 749.700 Q 387.557 747.869 383.575 747.869 Q 381.043 747.869 378.639 748.477 Q 376.243 749.084 374.032 750.299 L 374.032 745.810 Q 376.690 744.781 379.196 744.275 Q 381.702 743.760 384.072 743.760 Q 390.485 743.760 393.649 747.084 Q 396.813 750.400 396.813 757.150 Z M 423.965 732.968 L 428.817 732.968 L 428.817 774.000 L 423.965 774.000 L 423.965 732.968 Z M 452.391 759.158 Q 446.510 759.158 444.240 760.500 Q 441.971 761.842 441.971 765.090 Q 441.971 767.672 443.675 769.191 Q 445.379 770.701 448.299 770.701 Q 452.340 770.701 454.779 767.841 Q 457.217 764.980 457.217 760.238 L 457.217 759.158 L 452.391 759.158 Z M 462.069 757.150 L 462.069 774.000 L 457.217 774.000 L 457.217 769.520 Q 455.555 772.203 453.074 773.485 Q 450.594 774.768 447.008 774.768 Q 442.477 774.768 439.794 772.220 Q 437.119 769.672 437.119 765.402 Q 437.119 760.424 440.452 757.893 Q 443.793 755.362 450.408 755.362 L 457.217 755.362 L 457.217 754.881 Q 457.217 751.531 455.015 749.700 Q 452.813 747.869 448.830 747.869 Q 446.299 747.869 443.894 748.477 Q 441.498 749.084 439.288 750.299 L 439.288 745.810 Q 441.945 744.781 444.451 744.275 Q 446.957 743.760 449.328 743.760 Q 455.741 743.760 458.905 747.084 Q 462.069 750.400 462.069 757.150 Z M 508.652 748.949 L 508.652 732.968 L 513.504 732.968 L 513.504 774.000 L 508.652 774.000 L 508.652 769.570 Q 507.125 772.203 504.788 773.485 Q 502.459 774.768 499.185 774.768 Q 493.836 774.768 490.469 770.498 Q 487.111 766.221 487.111 759.260 Q 487.111 752.299 490.469 748.029 Q 493.836 743.760 499.185 743.760 Q 502.459 743.760 504.788 745.043 Q 507.125 746.317 508.652 748.949 Z M 492.123 759.260 Q 492.123 764.609 494.325 767.655 Q 496.528 770.701 500.375 770.701 Q 504.223 770.701 506.433 767.655 Q 508.652 764.609 508.652 759.260 Q 508.652 753.910 506.433 750.864 Q 504.223 747.818 500.375 747.818 Q 496.528 747.818 494.325 750.864 Q 492.123 753.910 492.123 759.260 Z M 548.764 758.019 L 548.764 760.390 L 526.455 760.390 Q 526.776 765.402 529.476 768.026 Q 532.176 770.650 537.002 770.650 Q 539.795 770.650 542.419 769.967 Q 545.043 769.283 547.633 767.908 L 547.633 772.498 Q 545.018 773.603 542.276 774.186 Q 539.533 774.768 536.715 774.768 Q 529.645 774.768 525.519 770.659 Q 521.393 766.541 521.393 759.521 Q 521.393 752.273 525.308 748.021 Q 529.223 743.760 535.872 743.760 Q 541.828 743.760 545.296 747.599 Q 548.764 751.430 548.764 758.019 Z M 543.913 756.593 Q 543.862 752.619 541.685 750.248 Q 539.508 747.869 535.922 747.869 Q 531.864 747.869 529.425 750.164 Q 526.987 752.459 526.616 756.627 L 543.913 756.593 Z M 575.553 745.338 L 575.553 749.928 Q 573.503 748.873 571.284 748.350 Q 569.073 747.818 566.694 747.818 Q 563.082 747.818 561.277 748.924 Q 559.471 750.029 559.471 752.248 Q 559.471 753.936 560.762 754.898 Q 562.053 755.859 565.960 756.728 L 567.622 757.100 Q 572.786 758.205 574.963 760.222 Q 577.139 762.238 577.139 765.849 Q 577.139 769.967 573.883 772.372 Q 570.626 774.768 564.930 774.768 Q 562.559 774.768 559.986 774.304 Q 557.413 773.840 554.569 772.920 L 554.569 767.908 Q 557.261 769.309 559.868 770.009 Q 562.475 770.701 565.040 770.701 Q 568.466 770.701 570.305 769.528 Q 572.153 768.355 572.153 766.221 Q 572.153 764.246 570.820 763.192 Q 569.495 762.137 564.981 761.158 L 563.293 760.762 Q 558.788 759.817 556.780 757.851 Q 554.780 755.885 554.780 752.459 Q 554.780 748.291 557.733 746.030 Q 560.686 743.760 566.120 743.760 Q 568.803 743.760 571.174 744.157 Q 573.553 744.545 575.553 745.338 Z M 606.114 745.599 L 606.114 750.139 Q 604.055 749.000 601.988 748.434 Q 599.921 747.869 597.811 747.869 Q 593.086 747.869 590.471 750.864 Q 587.863 753.851 587.863 759.260 Q 587.863 764.668 590.471 767.663 Q 593.086 770.650 597.811 770.650 Q 599.921 770.650 601.988 770.085 Q 604.055 769.520 606.114 768.381 L 606.114 772.869 Q 604.080 773.814 601.903 774.287 Q 599.735 774.768 597.280 774.768 Q 590.606 774.768 586.674 770.574 Q 582.750 766.381 582.750 759.260 Q 582.750 752.037 586.716 747.903 Q 590.690 743.760 597.600 743.760 Q 599.836 743.760 601.971 744.224 Q 604.106 744.680 606.114 745.599 Z M 631.663 749.000 Q 630.844 748.527 629.882 748.308 Q 628.920 748.080 627.764 748.080 Q 623.647 748.080 621.445 750.755 Q 619.243 753.429 619.243 758.441 L 619.243 774.000 L 614.366 774.000 L 614.366 744.469 L 619.243 744.469 L 619.243 749.059 Q 620.778 746.367 623.225 745.068 Q 625.680 743.760 629.190 743.760 Q 629.688 743.760 630.296 743.827 Q 630.903 743.887 631.637 744.022 L 631.663 749.000 Z M 636.750 744.469 L 641.602 744.469 L 641.602 774.000 L 636.750 774.000 L 636.750 744.469 Z M 636.750 732.968 L 641.602 732.968 L 641.602 739.119 L 636.750 739.119 L 636.750 732.968 Z M 656.443 769.570 L 656.443 785.230 L 651.567 785.230 L 651.567 744.469 L 656.443 744.469 L 656.443 748.949 Q 657.979 746.317 660.308 745.043 Q 662.645 743.760 665.885 743.760 Q 671.268 743.760 674.626 748.029 Q 677.993 752.299 677.993 759.260 Q 677.993 766.221 674.626 770.498 Q 671.268 774.768 665.885 774.768 Q 662.645 774.768 660.308 773.485 Q 657.979 772.203 656.443 769.570 Z M 672.956 759.260 Q 672.956 753.910 670.753 750.864 Q 668.551 747.818 664.704 747.818 Q 660.848 747.818 658.646 750.864 Q 656.443 753.910 656.443 759.260 Q 656.443 764.609 658.646 767.655 Q 660.848 770.701 664.704 770.701 Q 668.551 770.701 670.753 767.655 Q 672.956 764.609 672.956 759.260 Z M 707.288 745.599 L 707.288 750.139 Q 705.229 749.000 703.162 748.434 Q 701.095 747.869 698.985 747.869 Q 694.260 747.869 691.645 750.864 Q 689.038 753.851 689.038 759.260 Q 689.038 764.668 691.645 767.663 Q 694.260 770.650 698.985 770.650 Q 701.095 770.650 703.162 770.085 Q 705.229 769.520 707.288 768.381 L 707.288 772.869 Q 705.254 773.814 703.078 774.287 Q 700.909 774.768 698.454 774.768 Q 691.780 774.768 687.848 770.574 Q 683.924 766.381 683.924 759.260 Q 683.924 752.037 687.890 747.903 Q 691.864 743.760 698.774 743.760 Q 701.010 743.760 703.145 744.224 Q 705.280 744.680 707.288 745.599 Z M 715.725 744.469 L 720.577 744.469 L 720.577 774.000 L 715.725 774.000 L 715.725 744.469 Z M 715.725 732.968 L 720.577 732.968 L 720.577 739.119 L 715.725 739.119 L 715.725 732.968 Z M 742.168 747.869 Q 738.270 747.869 736.001 750.915 Q 733.731 753.961 733.731 759.260 Q 733.731 764.558 735.984 767.604 Q 738.245 770.650 742.168 770.650 Q 746.050 770.650 748.311 767.596 Q 750.581 764.533 750.581 759.260 Q 750.581 754.012 748.311 750.940 Q 746.050 747.869 742.168 747.869 Z M 742.168 743.760 Q 748.497 743.760 752.108 747.878 Q 755.728 751.987 755.728 759.260 Q 755.728 766.508 752.108 770.642 Q 748.497 774.768 742.168 774.768 Q 735.815 774.768 732.212 770.642 Q 728.618 766.508 728.618 759.260 Q 728.618 751.987 732.212 747.878 Q 735.815 743.760 742.168 743.760 Z M 745.830 730.808 L 751.078 730.808 L 742.489 740.722 L 738.447 740.722 L 745.830 730.808 Z M 788.322 756.172 L 788.322 774.000 L 783.470 774.000 L 783.470 756.332 Q 783.470 752.138 781.833 750.063 Q 780.196 747.979 776.931 747.979 Q 772.999 747.979 770.729 750.485 Q 768.460 752.982 768.460 757.311 L 768.460 774.000 L 763.583 774.000 L 763.583 744.469 L 768.460 744.469 L 768.460 749.059 Q 770.206 746.393 772.560 745.076 Q 774.923 743.760 778.011 743.760 Q 783.099 743.760 785.706 746.907 Q 788.322 750.054 788.322 756.172 Z M 819.844 769.570 L 819.844 785.230 L 814.967 785.230 L 814.967 744.469 L 819.844 744.469 L 819.844 748.949 Q 821.380 746.317 823.708 745.043 Q 826.046 743.760 829.286 743.760 Q 834.669 743.760 838.027 748.029 Q 841.393 752.299 841.393 759.260 Q 841.393 766.221 838.027 770.498 Q 834.669 774.768 829.286 774.768 Q 826.046 774.768 823.708 773.485 Q 821.380 772.203 819.844 769.570 Z M 836.356 759.260 Q 836.356 753.910 834.154 750.864 Q 831.952 747.818 828.104 747.818 Q 824.248 747.818 822.046 750.864 Q 819.844 753.910 819.844 759.260 Q 819.844 764.609 822.046 767.655 Q 824.248 770.701 828.104 770.701 Q 831.952 770.701 834.154 767.655 Q 836.356 764.609 836.356 759.260 Z M 866.546 749.000 Q 865.727 748.527 864.765 748.308 Q 863.803 748.080 862.648 748.080 Q 858.530 748.080 856.328 750.755 Q 854.126 753.429 854.126 758.441 L 854.126 774.000 L 849.249 774.000 L 849.249 744.469 L 854.126 744.469 L 854.126 749.059 Q 855.661 746.367 858.108 745.068 Q 860.563 743.760 864.073 743.760 Q 864.571 743.760 865.179 743.827 Q 865.786 743.887 866.520 744.022 L 866.546 749.000 Z M 871.633 744.469 L 876.485 744.469 L 876.485 774.000 L 871.633 774.000 L 871.633 744.469 Z M 871.633 732.968 L 876.485 732.968 L 876.485 739.119 L 871.633 739.119 L 871.633 732.968 Z M 911.188 756.172 L 911.188 774.000 L 906.337 774.000 L 906.337 756.332 Q 906.337 752.138 904.700 750.063 Q 903.063 747.979 899.798 747.979 Q 895.866 747.979 893.596 750.485 Q 891.327 752.982 891.327 757.311 L 891.327 774.000 L 886.450 774.000 L 886.450 744.469 L 891.327 744.469 L 891.327 749.059 Q 893.073 746.393 895.427 745.076 Q 897.790 743.760 900.878 743.760 Q 905.966 743.760 908.573 746.907 Q 911.188 750.054 911.188 756.172 Z M 942.112 745.599 L 942.112 750.139 Q 940.053 749.000 937.986 748.434 Q 935.919 747.869 933.809 747.869 Q 929.084 747.869 926.469 750.864 Q 923.862 753.851 923.862 759.260 Q 923.862 764.668 926.469 767.663 Q 929.084 770.650 933.809 770.650 Q 935.919 770.650 937.986 770.085 Q 940.053 769.520 942.112 768.381 L 942.112 772.869 Q 940.078 773.814 937.902 774.287 Q 935.733 774.768 933.278 774.768 Q 926.604 774.768 922.672 770.574 Q 918.748 766.381 918.748 759.260 Q 918.748 752.037 922.714 747.903 Q 926.688 743.760 933.598 743.760 Q 935.834 743.760 937.969 744.224 Q 940.104 744.680 942.112 745.599 Z M 950.549 744.469 L 955.401 744.469 L 955.401 774.000 L 950.549 774.000 L 950.549 744.469 Z M 950.549 732.968 L 955.401 732.968 L 955.401 739.119 L 950.549 739.119 L 950.549 732.968 Z M 970.243 769.570 L 970.243 785.230 L 965.366 785.230 L 965.366 744.469 L 970.243 744.469 L 970.243 748.949 Q 971.778 746.317 974.107 745.043 Q 976.444 743.760 979.684 743.760 Q 985.067 743.760 988.425 748.029 Q 991.792 752.299 991.792 759.260 Q 991.792 766.221 988.425 770.498 Q 985.067 774.768 979.684 774.768 Q 976.444 774.768 974.107 773.485 Q 971.778 772.203 970.243 769.570 Z M 986.755 759.260 Q 986.755 753.910 984.553 750.864 Q 982.350 747.818 978.503 747.818 Q 974.647 747.818 972.445 750.864 Q 970.243 753.910 970.243 759.260 Q 970.243 764.609 972.445 767.655 Q 974.647 770.701 978.503 770.701 Q 982.350 770.701 984.553 767.655 Q 986.755 764.609 986.755 759.260 Z M 1013.257 759.158 Q 1007.376 759.158 1005.106 760.500 Q 1002.837 761.842 1002.837 765.090 Q 1002.837 767.672 1004.541 769.191 Q 1006.245 770.701 1009.165 770.701 Q 1013.206 770.701 1015.645 767.841 Q 1018.083 764.980 1018.083 760.238 L 1018.083 759.158 L 1013.257 759.158 Z M 1022.935 757.150 L 1022.935 774.000 L 1018.083 774.000 L 1018.083 769.520 Q 1016.421 772.203 1013.940 773.485 Q 1011.460 774.768 1007.874 774.768 Q 1003.343 774.768 1000.660 772.220 Q 997.985 769.672 997.985 765.402 Q 997.985 760.424 1001.318 757.893 Q 1004.659 755.362 1011.274 755.362 L 1018.083 755.362 L 1018.083 754.881 Q 1018.083 751.531 1015.881 749.700 Q 1013.679 747.869 1009.696 747.869 Q 1007.165 747.869 1004.760 748.477 Q 1002.364 749.084 1000.153 750.299 L 1000.153 745.810 Q 1002.811 744.781 1005.317 744.275 Q 1007.823 743.760 1010.194 743.760 Q 1016.607 743.760 1019.771 747.084 Q 1022.935 750.400 1022.935 757.150 Z M 1032.925 732.968 L 1037.776 732.968 L 1037.776 774.000 L 1032.925 774.000 L 1032.925 732.968 Z M 1048.610 767.301 L 1054.179 767.301 L 1054.179 774.000 L 1048.610 774.000 L 1048.610 767.301 Z M 1111.942 737.668 L 1111.942 743.279 Q 1109.250 740.773 1106.204 739.541 Q 1103.158 738.301 1099.733 738.301 Q 1092.983 738.301 1089.397 742.427 Q 1085.811 746.553 1085.811 754.357 Q 1085.811 762.137 1089.397 766.263 Q 1092.983 770.389 1099.733 770.389 Q 1103.158 770.389 1106.204 769.148 Q 1109.250 767.908 1111.942 765.402 L 1111.942 770.971 Q 1109.149 772.869 1106.019 773.823 Q 1102.897 774.768 1099.421 774.768 Q 1090.477 774.768 1085.330 769.300 Q 1080.192 763.824 1080.192 754.357 Q 1080.192 744.865 1085.330 739.398 Q 1090.477 733.922 1099.421 733.922 Q 1102.948 733.922 1106.069 734.858 Q 1109.200 735.795 1111.942 737.668 Z M 1133.382 759.158 Q 1127.501 759.158 1125.231 760.500 Q 1122.961 761.842 1122.961 765.090 Q 1122.961 767.672 1124.666 769.191 Q 1126.370 770.701 1129.289 770.701 Q 1133.331 770.701 1135.769 767.841 Q 1138.208 764.980 1138.208 760.238 L 1138.208 759.158 L 1133.382 759.158 Z M 1143.059 757.150 L 1143.059 774.000 L 1138.208 774.000 L 1138.208 769.520 Q 1136.546 772.203 1134.065 773.485 Q 1131.584 774.768 1127.998 774.768 Q 1123.468 774.768 1120.784 772.220 Q 1118.110 769.672 1118.110 765.402 Q 1118.110 760.424 1121.443 757.893 Q 1124.784 755.362 1131.399 755.362 L 1138.208 755.362 L 1138.208 754.881 Q 1138.208 751.531 1136.006 749.700 Q 1133.803 747.869 1129.821 747.869 Q 1127.290 747.869 1124.885 748.477 Q 1122.489 749.084 1120.278 750.299 L 1120.278 745.810 Q 1122.936 744.781 1125.442 744.275 Q 1127.948 743.760 1130.319 743.760 Q 1136.731 743.760 1139.895 747.084 Q 1143.059 750.400 1143.059 757.150 Z M 1176.042 750.139 Q 1177.864 746.865 1180.395 745.312 Q 1182.927 743.760 1186.352 743.760 Q 1190.968 743.760 1193.473 746.992 Q 1195.979 750.215 1195.979 756.172 L 1195.979 774.000 L 1191.102 774.000 L 1191.102 756.332 Q 1191.102 752.088 1189.592 750.038 Q 1188.090 747.979 1185.011 747.979 Q 1181.239 747.979 1179.045 750.485 Q 1176.860 752.982 1176.860 757.311 L 1176.860 774.000 L 1171.983 774.000 L 1171.983 756.332 Q 1171.983 752.062 1170.481 750.021 Q 1168.979 747.979 1165.841 747.979 Q 1162.120 747.979 1159.926 750.493 Q 1157.741 753.008 1157.741 757.311 L 1157.741 774.000 L 1152.864 774.000 L 1152.864 744.469 L 1157.741 744.469 L 1157.741 749.059 Q 1159.403 746.342 1161.723 745.051 Q 1164.043 743.760 1167.233 743.760 Q 1170.456 743.760 1172.709 745.397 Q 1174.962 747.025 1176.042 750.139 Z M 1226.852 759.260 Q 1226.852 753.910 1224.650 750.864 Q 1222.448 747.818 1218.600 747.818 Q 1214.744 747.818 1212.542 750.864 Q 1210.340 753.910 1210.340 759.260 Q 1210.340 764.609 1212.542 767.655 Q 1214.744 770.701 1218.600 770.701 Q 1222.448 770.701 1224.650 767.655 Q 1226.852 764.609 1226.852 759.260 Z M 1210.340 748.949 Q 1211.876 746.317 1214.204 745.043 Q 1216.542 743.760 1219.782 743.760 Q 1225.165 743.760 1228.523 748.029 Q 1231.889 752.299 1231.889 759.260 Q 1231.889 766.221 1228.523 770.498 Q 1225.165 774.768 1219.782 774.768 Q 1216.542 774.768 1214.204 773.485 Q 1211.876 772.203 1210.340 769.570 L 1210.340 774.000 L 1205.463 774.000 L 1205.463 732.968 L 1210.340 732.968 L 1210.340 748.949 Z M 1239.930 744.469 L 1244.782 744.469 L 1244.782 774.000 L 1239.930 774.000 L 1239.930 744.469 Z M 1239.930 732.968 L 1244.782 732.968 L 1244.782 739.119 L 1239.930 739.119 L 1239.930 732.968 Z M 1268.356 759.158 Q 1262.475 759.158 1260.206 760.500 Q 1257.936 761.842 1257.936 765.090 Q 1257.936 767.672 1259.640 769.191 Q 1261.345 770.701 1264.264 770.701 Q 1268.306 770.701 1270.744 767.841 Q 1273.183 764.980 1273.183 760.238 L 1273.183 759.158 L 1268.356 759.158 Z M 1278.034 757.150 L 1278.034 774.000 L 1273.183 774.000 L 1273.183 769.520 Q 1271.520 772.203 1269.040 773.485 Q 1266.559 774.768 1262.973 774.768 Q 1258.442 774.768 1255.759 772.220 Q 1253.084 769.672 1253.084 765.402 Q 1253.084 760.424 1256.417 757.893 Q 1259.758 755.362 1266.373 755.362 L 1273.183 755.362 L 1273.183 754.881 Q 1273.183 751.531 1270.980 749.700 Q 1268.778 747.869 1264.796 747.869 Q 1262.264 747.869 1259.860 748.477 Q 1257.463 749.084 1255.253 750.299 L 1255.253 745.810 Q 1257.911 744.781 1260.417 744.275 Q 1262.923 743.760 1265.293 743.760 Q 1271.706 743.760 1274.870 747.084 Q 1278.034 750.400 1278.034 757.150 Z M 1330.448 758.019 L 1330.448 760.390 L 1308.139 760.390 Q 1308.460 765.402 1311.160 768.026 Q 1313.860 770.650 1318.686 770.650 Q 1321.479 770.650 1324.103 769.967 Q 1326.727 769.283 1329.317 767.908 L 1329.317 772.498 Q 1326.702 773.603 1323.959 774.186 Q 1321.217 774.768 1318.399 774.768 Q 1311.328 774.768 1307.203 770.659 Q 1303.077 766.541 1303.077 759.521 Q 1303.077 752.273 1306.992 748.021 Q 1310.907 743.760 1317.555 743.760 Q 1323.512 743.760 1326.980 747.599 Q 1330.448 751.430 1330.448 758.019 Z M 1325.596 756.593 Q 1325.546 752.619 1323.369 750.248 Q 1321.192 747.869 1317.606 747.869 Q 1313.548 747.869 1311.109 750.164 Q 1308.671 752.459 1308.299 756.627 L 1325.596 756.593 Z M 1357.237 745.338 L 1357.237 749.928 Q 1355.187 748.873 1352.967 748.350 Q 1350.757 747.818 1348.378 747.818 Q 1344.766 747.818 1342.961 748.924 Q 1341.155 750.029 1341.155 752.248 Q 1341.155 753.936 1342.446 754.898 Q 1343.737 755.859 1347.643 756.728 L 1349.306 757.100 Q 1354.469 758.205 1356.646 760.222 Q 1358.823 762.238 1358.823 765.849 Q 1358.823 769.967 1355.566 772.372 Q 1352.309 774.768 1346.614 774.768 Q 1344.243 774.768 1341.670 774.304 Q 1339.096 773.840 1336.253 772.920 L 1336.253 767.908 Q 1338.944 769.309 1341.552 770.009 Q 1344.159 770.701 1346.724 770.701 Q 1350.149 770.701 1351.989 769.528 Q 1353.837 768.355 1353.837 766.221 Q 1353.837 764.246 1352.503 763.192 Q 1351.179 762.137 1346.665 761.158 L 1344.977 760.762 Q 1340.472 759.817 1338.463 757.851 Q 1336.464 755.885 1336.464 752.459 Q 1336.464 748.291 1339.417 746.030 Q 1342.370 743.760 1347.804 743.760 Q 1350.487 743.760 1352.858 744.157 Q 1355.237 744.545 1357.237 745.338 Z M 1371.344 736.082 L 1371.344 744.469 L 1381.334 744.469 L 1381.334 748.240 L 1371.344 748.240 L 1371.344 764.272 Q 1371.344 767.883 1372.332 768.912 Q 1373.319 769.942 1376.356 769.942 L 1381.334 769.942 L 1381.334 774.000 L 1376.356 774.000 Q 1370.737 774.000 1368.602 771.908 Q 1366.467 769.807 1366.467 764.272 L 1366.467 748.240 L 1362.907 748.240 L 1362.907 744.469 L 1366.467 744.469 L 1366.467 736.082 L 1371.344 736.082 Z M 1412.975 758.019 L 1412.975 760.390 L 1390.666 760.390 Q 1390.987 765.402 1393.687 768.026 Q 1396.387 770.650 1401.213 770.650 Q 1404.006 770.650 1406.630 769.967 Q 1409.254 769.283 1411.844 767.908 L 1411.844 772.498 Q 1409.229 773.603 1406.487 774.186 Q 1403.744 774.768 1400.926 774.768 Q 1393.856 774.768 1389.730 770.659 Q 1385.604 766.541 1385.604 759.521 Q 1385.604 752.273 1389.519 748.021 Q 1393.434 743.760 1400.082 743.760 Q 1406.039 743.760 1409.507 747.599 Q 1412.975 751.430 1412.975 758.019 Z M 1408.123 756.593 Q 1408.073 752.619 1405.896 750.248 Q 1403.719 747.869 1400.133 747.869 Q 1396.075 747.869 1393.636 750.164 Q 1391.198 752.459 1390.827 756.627 L 1408.123 756.593 Z M 1442.903 736.082 L 1442.903 744.469 L 1452.893 744.469 L 1452.893 748.240 L 1442.903 748.240 L 1442.903 764.272 Q 1442.903 767.883 1443.890 768.912 Q 1444.877 769.942 1447.915 769.942 L 1452.893 769.942 L 1452.893 774.000 L 1447.915 774.000 Q 1442.295 774.000 1440.161 771.908 Q 1438.026 769.807 1438.026 764.272 L 1438.026 748.240 L 1434.465 748.240 L 1434.465 744.469 L 1438.026 744.469 L 1438.026 736.082 L 1442.903 736.082 Z M 1484.533 758.019 L 1484.533 760.390 L 1462.225 760.390 Q 1462.545 765.402 1465.245 768.026 Q 1467.945 770.650 1472.772 770.650 Q 1475.564 770.650 1478.188 769.967 Q 1480.812 769.283 1483.403 767.908 L 1483.403 772.498 Q 1480.787 773.603 1478.045 774.186 Q 1475.303 774.768 1472.485 774.768 Q 1465.414 774.768 1461.288 770.659 Q 1457.162 766.541 1457.162 759.521 Q 1457.162 752.273 1461.077 748.021 Q 1464.992 743.760 1471.641 743.760 Q 1477.598 743.760 1481.066 747.599 Q 1484.533 751.430 1484.533 758.019 Z M 1479.682 756.593 Q 1479.631 752.619 1477.454 750.248 Q 1475.278 747.869 1471.692 747.869 Q 1467.633 747.869 1465.195 750.164 Q 1462.756 752.459 1462.385 756.627 L 1479.682 756.593 Z M 1516.107 744.469 L 1505.425 758.838 L 1516.655 774.000 L 1510.934 774.000 L 1502.337 762.398 L 1493.747 774.000 L 1488.018 774.000 L 1499.493 758.551 L 1488.997 744.469 L 1494.717 744.469 L 1502.548 754.990 L 1510.378 744.469 L 1516.107 744.469 Z M 1528.316 736.082 L 1528.316 744.469 L 1538.306 744.469 L 1538.306 748.240 L 1528.316 748.240 L 1528.316 764.272 Q 1528.316 767.883 1529.303 768.912 Q 1530.290 769.942 1533.328 769.942 L 1538.306 769.942 L 1538.306 774.000 L 1533.328 774.000 Q 1527.708 774.000 1525.573 771.908 Q 1523.439 769.807 1523.439 764.272 L 1523.439 748.240 L 1519.878 748.240 L 1519.878 744.469 L 1523.439 744.469 L 1523.439 736.082 L 1528.316 736.082 Z M 1556.126 747.869 Q 1552.228 747.869 1549.958 750.915 Q 1547.688 753.961 1547.688 759.260 Q 1547.688 764.558 1549.941 767.604 Q 1552.202 770.650 1556.126 770.650 Q 1560.007 770.650 1562.268 767.596 Q 1564.538 764.533 1564.538 759.260 Q 1564.538 754.012 1562.268 750.940 Q 1560.007 747.869 1556.126 747.869 Z M 1556.126 743.760 Q 1562.454 743.760 1566.065 747.878 Q 1569.685 751.987 1569.685 759.260 Q 1569.685 766.508 1566.065 770.642 Q 1562.454 774.768 1556.126 774.768 Q 1549.772 774.768 1546.169 770.642 Q 1542.575 766.508 1542.575 759.260 Q 1542.575 751.987 1546.169 747.878 Q 1549.772 743.760 1556.126 743.760 Z M 1614.319 748.949 L 1614.319 732.968 L 1619.171 732.968 L 1619.171 774.000 L 1614.319 774.000 L 1614.319 769.570 Q 1612.792 772.203 1610.455 773.485 Q 1608.126 774.768 1604.852 774.768 Q 1599.503 774.768 1596.136 770.498 Q 1592.778 766.221 1592.778 759.260 Q 1592.778 752.299 1596.136 748.029 Q 1599.503 743.760 1604.852 743.760 Q 1608.126 743.760 1610.455 745.043 Q 1612.792 746.317 1614.319 748.949 Z M 1597.790 759.260 Q 1597.790 764.609 1599.992 767.655 Q 1602.194 770.701 1606.042 770.701 Q 1609.889 770.701 1612.100 767.655 Q 1614.319 764.609 1614.319 759.260 Q 1614.319 753.910 1612.100 750.864 Q 1609.889 747.818 1606.042 747.818 Q 1602.194 747.818 1599.992 750.864 Q 1597.790 753.910 1597.790 759.260 Z M 1654.431 758.019 L 1654.431 760.390 L 1632.122 760.390 Q 1632.443 765.402 1635.143 768.026 Q 1637.843 770.650 1642.669 770.650 Q 1645.462 770.650 1648.086 769.967 Q 1650.710 769.283 1653.300 767.908 L 1653.300 772.498 Q 1650.685 773.603 1647.943 774.186 Q 1645.200 774.768 1642.382 774.768 Q 1635.312 774.768 1631.186 770.659 Q 1627.060 766.541 1627.060 759.521 Q 1627.060 752.273 1630.975 748.021 Q 1634.890 743.760 1641.538 743.760 Q 1647.495 743.760 1650.963 747.599 Q 1654.431 751.430 1654.431 758.019 Z M 1649.579 756.593 Q 1649.529 752.619 1647.352 750.248 Q 1645.175 747.869 1641.589 747.869 Q 1637.531 747.869 1635.092 750.164 Q 1632.654 752.459 1632.283 756.627 L 1649.579 756.593 Z M 1681.220 745.338 L 1681.220 749.928 Q 1679.170 748.873 1676.951 748.350 Q 1674.740 747.818 1672.361 747.818 Q 1668.749 747.818 1666.944 748.924 Q 1665.138 750.029 1665.138 752.248 Q 1665.138 753.936 1666.429 754.898 Q 1667.720 755.859 1671.627 756.728 L 1673.289 757.100 Q 1678.453 758.205 1680.629 760.222 Q 1682.806 762.238 1682.806 765.849 Q 1682.806 769.967 1679.549 772.372 Q 1676.293 774.768 1670.597 774.768 Q 1668.226 774.768 1665.653 774.304 Q 1663.079 773.840 1660.236 772.920 L 1660.236 767.908 Q 1662.928 769.309 1665.535 770.009 Q 1668.142 770.701 1670.707 770.701 Q 1674.133 770.701 1675.972 769.528 Q 1677.820 768.355 1677.820 766.221 Q 1677.820 764.246 1676.487 763.192 Q 1675.162 762.137 1670.648 761.158 L 1668.960 760.762 Q 1664.455 759.817 1662.447 757.851 Q 1660.447 755.885 1660.447 752.459 Q 1660.447 748.291 1663.400 746.030 Q 1666.353 743.760 1671.787 743.760 Q 1674.470 743.760 1676.841 744.157 Q 1679.220 744.545 1681.220 745.338 Z M 1709.958 748.949 L 1709.958 732.968 L 1714.810 732.968 L 1714.810 774.000 L 1709.958 774.000 L 1709.958 769.570 Q 1708.431 772.203 1706.094 773.485 Q 1703.765 774.768 1700.491 774.768 Q 1695.142 774.768 1691.775 770.498 Q 1688.417 766.221 1688.417 759.260 Q 1688.417 752.299 1691.775 748.029 Q 1695.142 743.760 1700.491 743.760 Q 1703.765 743.760 1706.094 745.043 Q 1708.431 746.317 1709.958 748.949 Z M 1693.429 759.260 Q 1693.429 764.609 1695.631 767.655 Q 1697.833 770.701 1701.681 770.701 Q 1705.528 770.701 1707.739 767.655 Q 1709.958 764.609 1709.958 759.260 Q 1709.958 753.910 1707.739 750.864 Q 1705.528 747.818 1701.681 747.818 Q 1697.833 747.818 1695.631 750.864 Q 1693.429 753.910 1693.429 759.260 Z M 1750.070 758.019 L 1750.070 760.390 L 1727.761 760.390 Q 1728.082 765.402 1730.782 768.026 Q 1733.482 770.650 1738.308 770.650 Q 1741.101 770.650 1743.725 769.967 Q 1746.349 769.283 1748.939 767.908 L 1748.939 772.498 Q 1746.324 773.603 1743.582 774.186 Q 1740.839 774.768 1738.021 774.768 Q 1730.951 774.768 1726.825 770.659 Q 1722.699 766.541 1722.699 759.521 Q 1722.699 752.273 1726.614 748.021 Q 1730.529 743.760 1737.178 743.760 Q 1743.134 743.760 1746.602 747.599 Q 1750.070 751.430 1750.070 758.019 Z M 1745.218 756.593 Q 1745.168 752.619 1742.991 750.248 Q 1740.814 747.869 1737.228 747.869 Q 1733.170 747.869 1730.731 750.164 Q 1728.293 752.459 1727.922 756.627 L 1745.218 756.593 Z M 1800.459 758.019 L 1800.459 760.390 L 1778.150 760.390 Q 1778.471 765.402 1781.171 768.026 Q 1783.871 770.650 1788.697 770.650 Q 1791.490 770.650 1794.114 769.967 Q 1796.738 769.283 1799.328 767.908 L 1799.328 772.498 Q 1796.713 773.603 1793.970 774.186 Q 1791.228 774.768 1788.410 774.768 Q 1781.339 774.768 1777.213 770.659 Q 1773.088 766.541 1773.088 759.521 Q 1773.088 752.273 1777.003 748.021 Q 1780.918 743.760 1787.566 743.760 Q 1793.523 743.760 1796.991 747.599 Q 1800.459 751.430 1800.459 758.019 Z M 1795.607 756.593 Q 1795.557 752.619 1793.380 750.248 Q 1791.203 747.869 1787.617 747.869 Q 1783.558 747.869 1781.120 750.164 Q 1778.682 752.459 1778.310 756.627 L 1795.607 756.593 Z M 1808.424 732.968 L 1813.275 732.968 L 1813.275 774.000 L 1808.424 774.000 L 1808.424 732.968 Z M 1840.798 734.631 L 1846.123 734.631 L 1846.123 771.258 Q 1846.123 778.379 1843.423 781.594 Q 1840.723 784.808 1834.732 784.808 L 1832.707 784.808 L 1832.707 780.328 L 1834.369 780.328 Q 1837.896 780.328 1839.347 778.345 Q 1840.798 776.371 1840.798 771.258 L 1840.798 734.631 Z M 1880.328 735.922 L 1880.328 741.119 Q 1877.299 739.668 1874.608 738.959 Q 1871.916 738.242 1869.410 738.242 Q 1865.065 738.242 1862.702 739.929 Q 1860.340 741.617 1860.340 744.730 Q 1860.340 747.346 1861.909 748.679 Q 1863.478 750.004 1867.858 750.822 L 1871.072 751.480 Q 1877.029 752.619 1879.864 755.480 Q 1882.699 758.340 1882.699 763.133 Q 1882.699 768.862 1878.860 771.815 Q 1875.029 774.768 1867.621 774.768 Q 1864.828 774.768 1861.673 774.135 Q 1858.526 773.502 1855.151 772.262 L 1855.151 766.778 Q 1858.391 768.592 1861.504 769.520 Q 1864.618 770.439 1867.621 770.439 Q 1872.178 770.439 1874.658 768.651 Q 1877.139 766.853 1877.139 763.529 Q 1877.139 760.635 1875.358 758.998 Q 1873.578 757.361 1869.520 756.543 L 1866.271 755.910 Q 1860.314 754.729 1857.648 752.197 Q 1854.990 749.666 1854.990 745.152 Q 1854.990 739.929 1858.669 736.926 Q 1862.348 733.922 1868.803 733.922 Q 1871.578 733.922 1874.447 734.428 Q 1877.324 734.926 1880.328 735.922 Z M 1906.991 738.242 Q 1901.186 738.242 1897.768 742.570 Q 1894.360 746.890 1894.360 754.357 Q 1894.360 761.791 1897.768 766.119 Q 1901.186 770.439 1906.991 770.439 Q 1912.787 770.439 1916.179 766.119 Q 1919.571 761.791 1919.571 754.357 Q 1919.571 746.890 1916.179 742.570 Q 1912.787 738.242 1906.991 738.242 Z M 1906.991 733.922 Q 1915.268 733.922 1920.221 739.474 Q 1925.182 745.026 1925.182 754.357 Q 1925.182 763.664 1920.221 769.216 Q 1915.268 774.768 1906.991 774.768 Q 1898.688 774.768 1893.710 769.233 Q 1888.740 763.689 1888.740 754.357 Q 1888.740 745.026 1893.710 739.474 Q 1898.688 733.922 1906.991 733.922 Z M 1933.518 734.631 L 1940.690 734.631 L 1958.147 767.562 L 1958.147 734.631 L 1963.311 734.631 L 1963.311 774.000 L 1956.139 774.000 L 1938.690 741.068 L 1938.690 774.000 L 1933.518 774.000 L 1933.518 734.631 Z M 1974.389 767.301 L 1979.958 767.301 L 1979.958 774.000 L 1974.389 774.000 L 1974.389 767.301 Z" fill="#675F55"/>
<path d="M 206.051 1006.375 Q 206.051 1004.852 206.595 1003.520 Q 207.140 1002.188 208.183 1001.164 Q 209.273 1000.121 210.605 999.576 Q 211.937 999.031 213.433 999.031 Q 214.930 999.031 216.268 999.589 Q 217.614 1000.140 218.644 1001.164 Q 219.707 1002.227 220.252 1003.553 Q 220.797 1004.878 220.797 1006.375 Q 220.797 1007.891 220.239 1009.236 Q 219.688 1010.575 218.644 1011.625 Q 217.594 1012.668 216.249 1013.226 Q 214.910 1013.777 213.394 1013.777 Q 211.898 1013.777 210.559 1013.226 Q 209.227 1012.668 208.183 1011.625 Q 207.160 1010.575 206.602 1009.236 Q 206.051 1007.891 206.051 1006.375 Z" fill="#161513"/>
<path d="M 256.262 994.785 L 256.262 1006.289 L 261.473 1006.289 Q 264.367 1006.289 265.942 1004.793 Q 267.523 1003.297 267.523 1000.528 Q 267.523 997.778 265.942 996.282 Q 264.367 994.785 261.473 994.785 L 256.262 994.785 Z M 252.121 991.379 L 261.473 991.379 Q 266.624 991.379 269.256 993.709 Q 271.894 996.039 271.894 1000.528 Q 271.894 1005.062 269.256 1007.379 Q 266.624 1009.695 261.473 1009.695 L 256.262 1009.695 L 256.262 1022.000 L 252.121 1022.000 L 252.121 991.379 Z M 276.160 1012.937 L 276.160 999.031 L 279.933 999.031 L 279.933 1012.793 Q 279.933 1016.054 281.200 1017.688 Q 282.473 1019.316 285.019 1019.316 Q 288.071 1019.316 289.842 1017.367 Q 291.621 1015.418 291.621 1012.051 L 291.621 999.031 L 295.394 999.031 L 295.394 1022.000 L 291.621 1022.000 L 291.621 1018.469 Q 290.249 1020.563 288.432 1021.580 Q 286.620 1022.597 284.218 1022.597 Q 280.261 1022.597 278.207 1020.136 Q 276.160 1017.675 276.160 1012.937 Z M 285.656 998.480 L 285.656 998.480 Z M 322.261 1008.133 L 322.261 1022.000 L 318.488 1022.000 L 318.488 1008.258 Q 318.488 1004.997 317.215 1003.382 Q 315.942 1001.761 313.402 1001.761 Q 310.344 1001.761 308.578 1003.710 Q 306.813 1005.653 306.813 1009.019 L 306.813 1022.000 L 303.020 1022.000 L 303.020 999.031 L 306.813 999.031 L 306.813 1002.601 Q 308.172 1000.528 310.002 999.504 Q 311.840 998.480 314.242 998.480 Q 318.199 998.480 320.227 1000.928 Q 322.261 1003.376 322.261 1008.133 Z M 333.516 992.508 L 333.516 999.031 L 341.286 999.031 L 341.286 1001.965 L 333.516 1001.965 L 333.516 1014.433 Q 333.516 1017.242 334.284 1018.043 Q 335.052 1018.843 337.414 1018.843 L 341.286 1018.843 L 341.286 1022.000 L 337.414 1022.000 Q 333.043 1022.000 331.383 1020.372 Q 329.723 1018.738 329.723 1014.433 L 329.723 1001.965 L 326.953 1001.965 L 326.953 999.031 L 329.723 999.031 L 329.723 992.508 L 333.516 992.508 Z M 355.146 1001.676 Q 352.114 1001.676 350.349 1004.045 Q 348.583 1006.414 348.583 1010.535 Q 348.583 1014.657 350.336 1017.026 Q 352.094 1019.395 355.146 1019.395 Q 358.165 1019.395 359.923 1017.019 Q 361.689 1014.637 361.689 1010.535 Q 361.689 1006.453 359.923 1004.065 Q 358.165 1001.676 355.146 1001.676 Z M 355.146 998.480 Q 360.068 998.480 362.877 1001.683 Q 365.692 1004.878 365.692 1010.535 Q 365.692 1016.173 362.877 1019.388 Q 360.068 1022.597 355.146 1022.597 Q 350.204 1022.597 347.402 1019.388 Q 344.607 1016.173 344.607 1010.535 Q 344.607 1004.878 347.402 1001.683 Q 350.204 998.480 355.146 998.480 Z M 384.907 1012.937 L 384.907 999.031 L 388.680 999.031 L 388.680 1012.793 Q 388.680 1016.054 389.947 1017.688 Q 391.220 1019.316 393.766 1019.316 Q 396.818 1019.316 398.590 1017.367 Q 400.368 1015.418 400.368 1012.051 L 400.368 999.031 L 404.142 999.031 L 404.142 1022.000 L 400.368 1022.000 L 400.368 1018.469 Q 398.997 1020.563 397.179 1021.580 Q 395.368 1022.597 392.966 1022.597 Q 389.008 1022.597 386.954 1020.136 Q 384.907 1017.675 384.907 1012.937 Z M 394.403 998.480 L 394.403 998.480 Z M 431.008 1008.133 L 431.008 1022.000 L 427.235 1022.000 L 427.235 1008.258 Q 427.235 1004.997 425.962 1003.382 Q 424.689 1001.761 422.149 1001.761 Q 419.091 1001.761 417.326 1003.710 Q 415.560 1005.653 415.560 1009.019 L 415.560 1022.000 L 411.767 1022.000 L 411.767 999.031 L 415.560 999.031 L 415.560 1002.601 Q 416.919 1000.528 418.750 999.504 Q 420.587 998.480 422.989 998.480 Q 426.946 998.480 428.974 1000.928 Q 431.008 1003.376 431.008 1008.133 Z M 447.428 1001.676 Q 444.396 1001.676 442.631 1004.045 Q 440.865 1006.414 440.865 1010.535 Q 440.865 1014.657 442.618 1017.026 Q 444.376 1019.395 447.428 1019.395 Q 450.447 1019.395 452.205 1017.019 Q 453.971 1014.637 453.971 1010.535 Q 453.971 1006.453 452.205 1004.065 Q 450.447 1001.676 447.428 1001.676 Z M 447.428 998.480 Q 452.350 998.480 455.158 1001.683 Q 457.974 1004.878 457.974 1010.535 Q 457.974 1016.173 455.158 1019.388 Q 452.350 1022.597 447.428 1022.597 Q 442.486 1022.597 439.684 1019.388 Q 436.888 1016.173 436.888 1010.535 Q 436.888 1004.878 439.684 1001.683 Q 442.486 998.480 447.428 998.480 Z" fill="#161513"/>
<path d="M 206.051 1082.375 Q 206.051 1080.852 206.595 1079.520 Q 207.140 1078.188 208.183 1077.164 Q 209.273 1076.121 210.605 1075.576 Q 211.937 1075.031 213.433 1075.031 Q 214.930 1075.031 216.268 1075.589 Q 217.614 1076.140 218.644 1077.164 Q 219.707 1078.227 220.252 1079.553 Q 220.797 1080.878 220.797 1082.375 Q 220.797 1083.891 220.239 1085.236 Q 219.688 1086.575 218.644 1087.625 Q 217.594 1088.668 216.249 1089.226 Q 214.910 1089.777 213.394 1089.777 Q 211.898 1089.777 210.559 1089.226 Q 209.227 1088.668 208.183 1087.625 Q 207.160 1086.575 206.602 1085.236 Q 206.051 1083.891 206.051 1082.375 Z" fill="#161513"/>
<path d="M 256.262 1070.785 L 256.262 1082.289 L 261.473 1082.289 Q 264.367 1082.289 265.942 1080.793 Q 267.523 1079.297 267.523 1076.527 Q 267.523 1073.778 265.942 1072.282 Q 264.367 1070.785 261.473 1070.785 L 256.262 1070.785 Z M 252.121 1067.379 L 261.473 1067.379 Q 266.624 1067.379 269.256 1069.709 Q 271.894 1072.039 271.894 1076.527 Q 271.894 1081.062 269.256 1083.379 Q 266.624 1085.695 261.473 1085.695 L 256.262 1085.695 L 256.262 1098.000 L 252.121 1098.000 L 252.121 1067.379 Z M 276.160 1088.937 L 276.160 1075.031 L 279.933 1075.031 L 279.933 1088.793 Q 279.933 1092.054 281.200 1093.688 Q 282.473 1095.316 285.019 1095.316 Q 288.071 1095.316 289.842 1093.367 Q 291.621 1091.418 291.621 1088.051 L 291.621 1075.031 L 295.394 1075.031 L 295.394 1098.000 L 291.621 1098.000 L 291.621 1094.469 Q 290.249 1096.563 288.432 1097.580 Q 286.620 1098.597 284.218 1098.597 Q 280.261 1098.597 278.207 1096.136 Q 276.160 1093.675 276.160 1088.937 Z M 285.656 1074.480 L 285.656 1074.480 Z M 322.261 1084.133 L 322.261 1098.000 L 318.488 1098.000 L 318.488 1084.258 Q 318.488 1080.997 317.215 1079.382 Q 315.942 1077.761 313.402 1077.761 Q 310.344 1077.761 308.578 1079.710 Q 306.813 1081.653 306.813 1085.019 L 306.813 1098.000 L 303.020 1098.000 L 303.020 1075.031 L 306.813 1075.031 L 306.813 1078.601 Q 308.172 1076.527 310.002 1075.504 Q 311.840 1074.480 314.242 1074.480 Q 318.199 1074.480 320.227 1076.928 Q 322.261 1079.376 322.261 1084.133 Z M 333.516 1068.508 L 333.516 1075.031 L 341.286 1075.031 L 341.286 1077.965 L 333.516 1077.965 L 333.516 1090.433 Q 333.516 1093.242 334.284 1094.043 Q 335.052 1094.843 337.414 1094.843 L 341.286 1094.843 L 341.286 1098.000 L 337.414 1098.000 Q 333.043 1098.000 331.383 1096.372 Q 329.723 1094.738 329.723 1090.433 L 329.723 1077.965 L 326.953 1077.965 L 326.953 1075.031 L 329.723 1075.031 L 329.723 1068.508 L 333.516 1068.508 Z M 355.146 1077.676 Q 352.114 1077.676 350.349 1080.045 Q 348.583 1082.414 348.583 1086.535 Q 348.583 1090.657 350.336 1093.026 Q 352.094 1095.395 355.146 1095.395 Q 358.165 1095.395 359.923 1093.019 Q 361.689 1090.637 361.689 1086.535 Q 361.689 1082.453 359.923 1080.065 Q 358.165 1077.676 355.146 1077.676 Z M 355.146 1074.480 Q 360.068 1074.480 362.877 1077.682 Q 365.692 1080.878 365.692 1086.535 Q 365.692 1092.172 362.877 1095.388 Q 360.068 1098.597 355.146 1098.597 Q 350.204 1098.597 347.402 1095.388 Q 344.607 1092.172 344.607 1086.535 Q 344.607 1080.878 347.402 1077.682 Q 350.204 1074.480 355.146 1074.480 Z M 400.408 1078.516 L 400.408 1066.087 L 404.181 1066.087 L 404.181 1098.000 L 400.408 1098.000 L 400.408 1094.555 Q 399.220 1096.602 397.402 1097.600 Q 395.591 1098.597 393.044 1098.597 Q 388.884 1098.597 386.265 1095.277 Q 383.653 1091.949 383.653 1086.535 Q 383.653 1081.121 386.265 1077.801 Q 388.884 1074.480 393.044 1074.480 Q 395.591 1074.480 397.402 1075.477 Q 399.220 1076.468 400.408 1078.516 Z M 387.552 1086.535 Q 387.552 1090.696 389.264 1093.065 Q 390.977 1095.434 393.970 1095.434 Q 396.962 1095.434 398.682 1093.065 Q 400.408 1090.696 400.408 1086.535 Q 400.408 1082.375 398.682 1080.006 Q 396.962 1077.637 393.970 1077.637 Q 390.977 1077.637 389.264 1080.006 Q 387.552 1082.375 387.552 1086.535 Z M 420.856 1077.676 Q 417.824 1077.676 416.059 1080.045 Q 414.294 1082.414 414.294 1086.535 Q 414.294 1090.657 416.046 1093.026 Q 417.805 1095.395 420.856 1095.395 Q 423.875 1095.395 425.634 1093.019 Q 427.399 1090.637 427.399 1086.535 Q 427.399 1082.453 425.634 1080.065 Q 423.875 1077.676 420.856 1077.676 Z M 420.856 1074.480 Q 425.778 1074.480 428.587 1077.682 Q 431.402 1080.878 431.402 1086.535 Q 431.402 1092.172 428.587 1095.388 Q 425.778 1098.597 420.856 1098.597 Q 415.915 1098.597 413.112 1095.388 Q 410.317 1092.172 410.317 1086.535 Q 410.317 1080.878 413.112 1077.682 Q 415.915 1074.480 420.856 1074.480 Z M 452.297 1075.707 L 452.297 1079.277 Q 450.702 1078.457 448.977 1078.050 Q 447.257 1077.637 445.407 1077.637 Q 442.598 1077.637 441.193 1078.496 Q 439.789 1079.356 439.789 1081.082 Q 439.789 1082.394 440.793 1083.142 Q 441.797 1083.891 444.836 1084.567 L 446.128 1084.855 Q 450.145 1085.715 451.838 1087.283 Q 453.531 1088.852 453.531 1091.661 Q 453.531 1094.863 450.998 1096.733 Q 448.465 1098.597 444.035 1098.597 Q 442.191 1098.597 440.189 1098.236 Q 438.188 1097.875 435.976 1097.160 L 435.976 1093.262 Q 438.070 1094.351 440.097 1094.896 Q 442.125 1095.434 444.120 1095.434 Q 446.785 1095.434 448.215 1094.522 Q 449.653 1093.610 449.653 1091.949 Q 449.653 1090.414 448.616 1089.593 Q 447.585 1088.773 444.074 1088.012 L 442.762 1087.703 Q 439.257 1086.968 437.696 1085.439 Q 436.140 1083.910 436.140 1081.246 Q 436.140 1078.004 438.437 1076.245 Q 440.734 1074.480 444.960 1074.480 Q 447.047 1074.480 448.891 1074.788 Q 450.742 1075.090 452.297 1075.707 Z" fill="#161513"/>
<path d="M 206.051 1158.375 Q 206.051 1156.852 206.595 1155.520 Q 207.140 1154.188 208.183 1153.164 Q 209.273 1152.121 210.605 1151.576 Q 211.937 1151.031 213.433 1151.031 Q 214.930 1151.031 216.268 1151.589 Q 217.614 1152.140 218.644 1153.164 Q 219.707 1154.227 220.252 1155.553 Q 220.797 1156.878 220.797 1158.375 Q 220.797 1159.891 220.239 1161.236 Q 219.688 1162.575 218.644 1163.625 Q 217.594 1164.668 216.249 1165.226 Q 214.910 1165.777 213.394 1165.777 Q 211.898 1165.777 210.559 1165.226 Q 209.227 1164.668 208.183 1163.625 Q 207.160 1162.575 206.602 1161.236 Q 206.051 1159.891 206.051 1158.375 Z" fill="#161513"/>
<path d="M 256.262 1146.785 L 256.262 1158.289 L 261.473 1158.289 Q 264.367 1158.289 265.942 1156.793 Q 267.523 1155.297 267.523 1152.527 Q 267.523 1149.778 265.942 1148.282 Q 264.367 1146.785 261.473 1146.785 L 256.262 1146.785 Z M 252.121 1143.379 L 261.473 1143.379 Q 266.624 1143.379 269.256 1145.709 Q 271.894 1148.039 271.894 1152.527 Q 271.894 1157.062 269.256 1159.379 Q 266.624 1161.695 261.473 1161.695 L 256.262 1161.695 L 256.262 1174.000 L 252.121 1174.000 L 252.121 1143.379 Z M 276.160 1164.937 L 276.160 1151.031 L 279.933 1151.031 L 279.933 1164.793 Q 279.933 1168.054 281.200 1169.688 Q 282.473 1171.316 285.019 1171.316 Q 288.071 1171.316 289.842 1169.367 Q 291.621 1167.418 291.621 1164.051 L 291.621 1151.031 L 295.394 1151.031 L 295.394 1174.000 L 291.621 1174.000 L 291.621 1170.469 Q 290.249 1172.563 288.432 1173.580 Q 286.620 1174.597 284.218 1174.597 Q 280.261 1174.597 278.207 1172.136 Q 276.160 1169.675 276.160 1164.937 Z M 285.656 1150.480 L 285.656 1150.480 Z M 322.261 1160.133 L 322.261 1174.000 L 318.488 1174.000 L 318.488 1160.258 Q 318.488 1156.997 317.215 1155.382 Q 315.942 1153.761 313.402 1153.761 Q 310.344 1153.761 308.578 1155.710 Q 306.813 1157.653 306.813 1161.019 L 306.813 1174.000 L 303.020 1174.000 L 303.020 1151.031 L 306.813 1151.031 L 306.813 1154.601 Q 308.172 1152.527 310.002 1151.504 Q 311.840 1150.480 314.242 1150.480 Q 318.199 1150.480 320.227 1152.928 Q 322.261 1155.376 322.261 1160.133 Z M 333.516 1144.508 L 333.516 1151.031 L 341.286 1151.031 L 341.286 1153.965 L 333.516 1153.965 L 333.516 1166.433 Q 333.516 1169.242 334.284 1170.043 Q 335.052 1170.843 337.414 1170.843 L 341.286 1170.843 L 341.286 1174.000 L 337.414 1174.000 Q 333.043 1174.000 331.383 1172.372 Q 329.723 1170.738 329.723 1166.433 L 329.723 1153.965 L 326.953 1153.965 L 326.953 1151.031 L 329.723 1151.031 L 329.723 1144.508 L 333.516 1144.508 Z M 355.146 1153.676 Q 352.114 1153.676 350.349 1156.045 Q 348.583 1158.414 348.583 1162.535 Q 348.583 1166.657 350.336 1169.026 Q 352.094 1171.395 355.146 1171.395 Q 358.165 1171.395 359.923 1169.019 Q 361.689 1166.637 361.689 1162.535 Q 361.689 1158.453 359.923 1156.065 Q 358.165 1153.676 355.146 1153.676 Z M 355.146 1150.480 Q 360.068 1150.480 362.877 1153.682 Q 365.692 1156.878 365.692 1162.535 Q 365.692 1168.172 362.877 1171.388 Q 360.068 1174.597 355.146 1174.597 Q 350.204 1174.597 347.402 1171.388 Q 344.607 1168.172 344.607 1162.535 Q 344.607 1156.878 347.402 1153.682 Q 350.204 1150.480 355.146 1150.480 Z M 389.028 1144.508 L 389.028 1151.031 L 396.798 1151.031 L 396.798 1153.965 L 389.028 1153.965 L 389.028 1166.433 Q 389.028 1169.242 389.796 1170.043 Q 390.564 1170.843 392.926 1170.843 L 396.798 1170.843 L 396.798 1174.000 L 392.926 1174.000 Q 388.556 1174.000 386.895 1172.372 Q 385.235 1170.738 385.235 1166.433 L 385.235 1153.965 L 382.466 1153.965 L 382.466 1151.031 L 385.235 1151.031 L 385.235 1144.508 L 389.028 1144.508 Z M 415.068 1154.555 Q 414.432 1154.188 413.683 1154.017 Q 412.935 1153.840 412.036 1153.840 Q 408.834 1153.840 407.121 1155.920 Q 405.408 1158.001 405.408 1161.899 L 405.408 1174.000 L 401.615 1174.000 L 401.615 1151.031 L 405.408 1151.031 L 405.408 1154.601 Q 406.602 1152.508 408.506 1151.497 Q 410.415 1150.480 413.145 1150.480 Q 413.533 1150.480 414.005 1150.533 Q 414.477 1150.578 415.048 1150.683 L 415.068 1154.555 Z M 437.748 1161.571 L 437.748 1163.415 L 420.397 1163.415 Q 420.646 1167.313 422.746 1169.354 Q 424.846 1171.395 428.600 1171.395 Q 430.772 1171.395 432.813 1170.863 Q 434.854 1170.332 436.869 1169.262 L 436.869 1172.832 Q 434.834 1173.692 432.702 1174.144 Q 430.569 1174.597 428.377 1174.597 Q 422.877 1174.597 419.668 1171.401 Q 416.459 1168.199 416.459 1162.739 Q 416.459 1157.102 419.504 1153.794 Q 422.549 1150.480 427.721 1150.480 Q 432.354 1150.480 435.051 1153.466 Q 437.748 1156.445 437.748 1161.571 Z M 433.975 1160.462 Q 433.935 1157.371 432.242 1155.527 Q 430.549 1153.676 427.760 1153.676 Q 424.603 1153.676 422.707 1155.461 Q 420.810 1157.246 420.522 1160.488 L 433.975 1160.462 Z M 458.584 1151.707 L 458.584 1155.277 Q 456.989 1154.457 455.263 1154.050 Q 453.544 1153.637 451.693 1153.637 Q 448.885 1153.637 447.480 1154.496 Q 446.076 1155.356 446.076 1157.082 Q 446.076 1158.394 447.080 1159.142 Q 448.084 1159.891 451.123 1160.567 L 452.415 1160.855 Q 456.432 1161.715 458.125 1163.283 Q 459.818 1164.852 459.818 1167.661 Q 459.818 1170.863 457.285 1172.733 Q 454.752 1174.597 450.322 1174.597 Q 448.478 1174.597 446.476 1174.236 Q 444.475 1173.875 442.263 1173.160 L 442.263 1169.262 Q 444.357 1170.351 446.384 1170.896 Q 448.412 1171.434 450.407 1171.434 Q 453.072 1171.434 454.502 1170.522 Q 455.939 1169.610 455.939 1167.949 Q 455.939 1166.414 454.903 1165.593 Q 453.872 1164.773 450.361 1164.012 L 449.049 1163.703 Q 445.544 1162.968 443.982 1161.439 Q 442.427 1159.910 442.427 1157.246 Q 442.427 1154.004 444.724 1152.245 Q 447.021 1150.480 451.247 1150.480 Q 453.334 1150.480 455.178 1150.788 Q 457.029 1151.090 458.584 1151.707 Z" fill="#161513"/>
</g>
</svg>