<svg xmlns="http://www.w3.org/2000/svg" width="2100px" height="2970px" viewBox="0 0 2100 2970">
<metadata>Propuesta de Servicio – Intervención en Terreno / 01_base_prueba-rd-intervencion-terreno / vectorizado</metadata>
<g id="fondo_editable"><rect x="0" y="0" width="2100" height="2970" fill="#F6EFE3"/></g>
<g id="elementos_globales">
<rect x="70" y="70" width="1960" height="2830" rx="46" fill="none" stroke="#D9CEC0" stroke-width="4"/>
<path d="M 135.074 144.957 Q 137.555 144.957 138.631 144.038 Q 139.707 143.113 139.707 141.000 Q 139.707 138.907 138.631 138.007 Q 137.555 137.102 135.074 137.102 L 131.753 137.102 L 131.753 144.957 L 135.074 144.957 Z M 131.753 150.411 L 131.753 162.000 L 123.859 162.000 L 123.859 131.379 L 135.914 131.379 Q 141.965 131.379 144.780 133.414 Q 147.602 135.442 147.602 139.832 Q 147.602 142.864 146.132 144.813 Q 144.668 146.762 141.715 147.687 Q 143.336 148.055 144.616 149.361 Q 145.902 150.660 147.215 153.305 L 151.500 162.000 L 143.093 162.000 L 139.359 154.394 Q 138.231 152.097 137.069 151.257 Q 135.914 150.411 133.985 150.411 L 131.753 150.411 Z M 178.793 150.457 L 178.793 152.543 L 161.632 152.543 Q 161.895 155.129 163.496 156.422 Q 165.097 157.715 167.965 157.715 Q 170.282 157.715 172.710 157.026 Q 175.145 156.337 177.711 154.945 L 177.711 160.602 Q 175.105 161.587 172.500 162.092 Q 169.895 162.597 167.289 162.597 Q 161.055 162.597 157.597 159.428 Q 154.145 156.258 154.145 150.535 Q 154.145 144.918 157.537 141.702 Q 160.930 138.480 166.882 138.480 Q 172.297 138.480 175.545 141.742 Q 178.793 144.997 178.793 150.457 Z M 171.247 148.015 Q 171.247 145.922 170.026 144.642 Q 168.805 143.356 166.837 143.356 Q 164.704 143.356 163.372 144.557 Q 162.039 145.758 161.711 148.015 L 171.247 148.015 Z M 199.984 142.391 L 199.984 130.087 L 207.367 130.087 L 207.367 162.000 L 199.984 162.000 L 199.984 158.679 Q 198.468 160.707 196.637 161.652 Q 194.812 162.597 192.417 162.597 Q 188.171 162.597 185.441 159.224 Q 182.718 155.844 182.718 150.535 Q 182.718 145.226 185.441 141.853 Q 188.171 138.480 192.417 138.480 Q 194.793 138.480 196.630 139.432 Q 198.468 140.383 199.984 142.391 Z M 195.141 157.262 Q 197.503 157.262 198.743 155.542 Q 199.984 153.817 199.984 150.535 Q 199.984 147.254 198.743 145.535 Q 197.503 143.809 195.141 143.809 Q 192.804 143.809 191.564 145.535 Q 190.324 147.254 190.324 150.535 Q 190.324 153.817 191.564 155.542 Q 192.804 157.262 195.141 157.262 Z M 214.172 153.055 L 214.172 139.031 L 221.555 139.031 L 221.555 141.328 Q 221.555 143.192 221.535 146.014 Q 221.515 148.836 221.515 149.774 Q 221.515 152.543 221.660 153.764 Q 221.804 154.985 222.152 155.542 Q 222.598 156.258 223.327 156.652 Q 224.055 157.039 225.000 157.039 Q 227.297 157.039 228.609 155.273 Q 229.922 153.508 229.922 150.371 L 229.922 139.031 L 237.265 139.031 L 237.265 162.000 L 229.922 162.000 L 229.922 158.679 Q 228.262 160.688 226.404 161.646 Q 224.547 162.597 222.316 162.597 Q 218.332 162.597 216.252 160.156 Q 214.172 157.715 214.172 153.055 Z M 262.879 139.747 L 262.879 145.738 Q 261.382 144.714 259.873 144.222 Q 258.364 143.730 256.743 143.730 Q 253.672 143.730 251.959 145.522 Q 250.246 147.313 250.246 150.535 Q 250.246 153.757 251.959 155.556 Q 253.672 157.347 256.743 157.347 Q 258.469 157.347 260.017 156.835 Q 261.566 156.317 262.879 155.313 L 262.879 161.324 Q 261.153 161.961 259.381 162.276 Q 257.609 162.597 255.824 162.597 Q 249.609 162.597 246.098 159.408 Q 242.594 156.218 242.594 150.535 Q 242.594 144.852 246.098 141.669 Q 249.609 138.480 255.824 138.480 Q 257.629 138.480 259.381 138.795 Q 261.133 139.110 262.879 139.747 Z M 269.218 139.031 L 276.555 139.031 L 276.555 162.000 L 269.218 162.000 L 269.218 139.031 Z M 269.218 130.087 L 276.555 130.087 L 276.555 136.078 L 269.218 136.078 L 269.218 130.087 Z M 306.539 150.457 L 306.539 152.543 L 289.378 152.543 Q 289.641 155.129 291.242 156.422 Q 292.843 157.715 295.711 157.715 Q 298.028 157.715 300.456 157.026 Q 302.890 156.337 305.456 154.945 L 305.456 160.602 Q 302.851 161.587 300.246 162.092 Q 297.640 162.597 295.035 162.597 Q 288.801 162.597 285.342 159.428 Q 281.890 156.258 281.890 150.535 Q 281.890 144.918 285.283 141.702 Q 288.676 138.480 294.628 138.480 Q 300.042 138.480 303.291 141.742 Q 306.539 144.997 306.539 150.457 Z M 298.992 148.015 Q 298.992 145.922 297.772 144.642 Q 296.551 143.356 294.582 143.356 Q 292.449 143.356 291.117 144.557 Q 289.785 145.758 289.457 148.015 L 298.992 148.015 Z M 335.191 148.015 L 335.191 162.000 L 327.808 162.000 L 327.808 159.723 L 327.808 151.297 Q 327.808 148.324 327.677 147.195 Q 327.546 146.066 327.217 145.535 Q 326.784 144.813 326.043 144.412 Q 325.308 144.012 324.363 144.012 Q 322.066 144.012 320.753 145.791 Q 319.441 147.562 319.441 150.699 L 319.441 162.000 L 312.104 162.000 L 312.104 139.031 L 319.441 139.031 L 319.441 142.391 Q 321.101 140.383 322.965 139.432 Q 324.835 138.480 327.093 138.480 Q 331.070 138.480 333.130 140.921 Q 335.191 143.356 335.191 148.015 Z M 357.628 142.391 L 357.628 130.087 L 365.011 130.087 L 365.011 162.000 L 357.628 162.000 L 357.628 158.679 Q 356.112 160.707 354.281 161.652 Q 352.457 162.597 350.062 162.597 Q 345.816 162.597 343.086 159.224 Q 340.362 155.844 340.362 150.535 Q 340.362 145.226 343.086 141.853 Q 345.816 138.480 350.062 138.480 Q 352.437 138.480 354.275 139.432 Q 356.112 140.383 357.628 142.391 Z M 352.785 157.262 Q 355.147 157.262 356.388 155.542 Q 357.628 153.817 357.628 150.535 Q 357.628 147.254 356.388 145.535 Q 355.147 143.809 352.785 143.809 Q 350.449 143.809 349.208 145.535 Q 347.968 147.254 347.968 150.535 Q 347.968 153.817 349.208 155.542 Q 350.449 157.262 352.785 157.262 Z M 382.992 143.730 Q 380.551 143.730 379.271 145.482 Q 377.992 147.234 377.992 150.535 Q 377.992 153.836 379.271 155.595 Q 380.551 157.347 382.992 157.347 Q 385.394 157.347 386.661 155.595 Q 387.934 153.836 387.934 150.535 Q 387.934 147.234 386.661 145.482 Q 385.394 143.730 382.992 143.730 Z M 382.992 138.480 Q 388.918 138.480 392.252 141.683 Q 395.586 144.878 395.586 150.535 Q 395.586 156.199 392.252 159.401 Q 388.918 162.597 382.992 162.597 Q 377.047 162.597 373.693 159.401 Q 370.340 156.199 370.340 150.535 Q 370.340 144.878 373.693 141.683 Q 377.047 138.480 382.992 138.480 Z M 423.765 137.351 L 423.765 156.035 L 426.593 156.035 Q 431.430 156.035 433.983 153.633 Q 436.542 151.231 436.542 146.657 Q 436.542 142.109 433.996 139.733 Q 431.456 137.351 426.593 137.351 L 423.765 137.351 Z M 415.870 131.379 L 424.192 131.379 Q 431.167 131.379 434.580 132.377 Q 437.993 133.368 440.434 135.750 Q 442.586 137.824 443.630 140.534 Q 444.680 143.238 444.680 146.657 Q 444.680 150.128 443.630 152.845 Q 442.586 155.562 440.434 157.629 Q 437.973 160.012 434.527 161.009 Q 431.082 162.000 424.192 162.000 L 415.870 162.000 L 415.870 131.379 Z M 460.699 151.664 Q 458.402 151.664 457.240 152.445 Q 456.085 153.219 456.085 154.742 Q 456.085 156.133 457.017 156.927 Q 457.956 157.715 459.616 157.715 Q 461.683 157.715 463.101 156.232 Q 464.518 154.742 464.518 152.504 L 464.518 151.664 L 460.699 151.664 Z M 471.921 148.895 L 471.921 162.000 L 464.518 162.000 L 464.518 158.594 Q 463.042 160.688 461.191 161.646 Q 459.347 162.597 456.702 162.597 Q 453.132 162.597 450.907 160.517 Q 448.683 158.430 448.683 155.109 Q 448.683 151.067 451.459 149.183 Q 454.241 147.293 460.187 147.293 L 464.518 147.293 L 464.518 146.722 Q 464.518 144.977 463.140 144.170 Q 461.768 143.356 458.855 143.356 Q 456.499 143.356 454.464 143.828 Q 452.437 144.301 450.691 145.246 L 450.691 139.648 Q 453.053 139.071 455.429 138.775 Q 457.811 138.480 460.187 138.480 Q 466.402 138.480 469.158 140.928 Q 471.921 143.376 471.921 148.895 Z M 501.839 148.015 L 501.839 162.000 L 494.456 162.000 L 494.456 159.723 L 494.456 151.297 Q 494.456 148.324 494.325 147.195 Q 494.194 146.066 493.866 145.535 Q 493.433 144.813 492.691 144.412 Q 491.956 144.012 491.011 144.012 Q 488.714 144.012 487.402 145.791 Q 486.089 147.562 486.089 150.699 L 486.089 162.000 L 478.752 162.000 L 478.752 139.031 L 486.089 139.031 L 486.089 142.391 Q 487.749 140.383 489.613 139.432 Q 491.483 138.480 493.741 138.480 Q 497.718 138.480 499.778 140.921 Q 501.839 143.356 501.839 148.015 Z M 490.722 134.024 L 489.593 133.269 Q 489.515 133.230 489.390 133.145 Q 488.425 132.508 487.913 132.508 Q 487.178 132.508 486.785 133.145 Q 486.397 133.781 486.397 134.989 L 486.397 135.153 L 483.549 135.153 Q 483.549 132.364 484.599 130.848 Q 485.656 129.332 487.566 129.332 Q 488.307 129.332 489.055 129.608 Q 489.803 129.883 490.643 130.500 L 491.890 131.379 Q 492.343 131.688 492.724 131.852 Q 493.104 132.016 493.413 132.016 Q 494.148 132.016 494.555 131.360 Q 494.968 130.703 494.968 129.535 L 494.968 129.371 L 497.823 129.371 Q 497.823 132.160 496.766 133.683 Q 495.710 135.199 493.800 135.199 Q 493.065 135.199 492.376 134.956 Q 491.687 134.707 490.722 134.024 Z M 519.577 143.730 Q 517.136 143.730 515.857 145.482 Q 514.577 147.234 514.577 150.535 Q 514.577 153.836 515.857 155.595 Q 517.136 157.347 519.577 157.347 Q 521.979 157.347 523.246 155.595 Q 524.519 153.836 524.519 150.535 Q 524.519 147.234 523.246 145.482 Q 521.979 143.730 519.577 143.730 Z M 519.577 138.480 Q 525.503 138.480 528.837 141.683 Q 532.171 144.878 532.171 150.535 Q 532.171 156.199 528.837 159.401 Q 525.503 162.597 519.577 162.597 Q 513.632 162.597 510.278 159.401 Q 506.925 156.199 506.925 150.535 Q 506.925 144.878 510.278 141.683 Q 513.632 138.480 519.577 138.480 Z M 576.737 160.320 Q 574.558 161.449 572.202 162.020 Q 569.846 162.597 567.280 162.597 Q 559.628 162.597 555.159 158.318 Q 550.690 154.040 550.690 146.722 Q 550.690 139.379 555.159 135.107 Q 559.628 130.828 567.280 130.828 Q 569.846 130.828 572.202 131.406 Q 574.558 131.977 576.737 133.105 L 576.737 139.438 Q 574.538 137.942 572.406 137.246 Q 570.273 136.551 567.917 136.551 Q 563.691 136.551 561.269 139.261 Q 558.854 141.965 558.854 146.722 Q 558.854 151.461 561.269 154.171 Q 563.691 156.875 567.917 156.875 Q 570.273 156.875 572.406 156.179 Q 574.538 155.477 576.737 153.981 L 576.737 160.320 Z M 606.038 148.015 L 606.038 162.000 L 598.656 162.000 L 598.656 159.723 L 598.656 151.336 Q 598.656 148.324 598.524 147.195 Q 598.393 146.066 598.065 145.535 Q 597.632 144.813 596.890 144.412 Q 596.155 144.012 595.210 144.012 Q 592.913 144.012 591.601 145.791 Q 590.288 147.562 590.288 150.699 L 590.288 162.000 L 582.952 162.000 L 582.952 130.087 L 590.288 130.087 L 590.288 142.391 Q 591.949 140.383 593.812 139.432 Q 595.683 138.480 597.940 138.480 Q 601.917 138.480 603.978 140.921 Q 606.038 143.356 606.038 148.015 Z M 612.850 139.031 L 620.187 139.031 L 620.187 162.000 L 612.850 162.000 L 612.850 139.031 Z M 612.850 130.087 L 620.187 130.087 L 620.187 136.078 L 612.850 136.078 L 612.850 130.087 Z M 627.248 130.087 L 634.585 130.087 L 634.585 162.000 L 627.248 162.000 L 627.248 130.087 Z M 664.569 150.457 L 664.569 152.543 L 647.408 152.543 Q 647.671 155.129 649.272 156.422 Q 650.873 157.715 653.741 157.715 Q 656.058 157.715 658.486 157.026 Q 660.921 156.337 663.487 154.945 L 663.487 160.602 Q 660.881 161.587 658.276 162.092 Q 655.671 162.597 653.065 162.597 Q 646.831 162.597 643.372 159.428 Q 639.921 156.258 639.921 150.535 Q 639.921 144.918 643.313 141.702 Q 646.706 138.480 652.658 138.480 Q 658.072 138.480 661.321 141.742 Q 664.569 144.997 664.569 150.457 Z M 657.023 148.015 Q 657.023 145.922 655.802 144.642 Q 654.581 143.356 652.612 143.356 Q 650.480 143.356 649.148 144.557 Q 647.815 145.758 647.487 148.015 L 657.023 148.015 Z" fill="#161513"/>
</g>
<g id="elementos_documento">
<path d="M 120.446 324.926 L 182.258 324.926 L 182.258 338.007 L 160.020 338.007 L 160.020 392.000 L 142.727 392.000 L 142.727 338.007 L 120.446 338.007 L 120.446 324.926 Z M 191.214 324.926 L 208.507 324.926 L 208.507 392.000 L 191.214 392.000 L 191.214 324.926 Z M 201.046 306.684 L 213.768 306.684 L 200.960 318.544 L 192.163 318.544 L 201.046 306.684 Z M 217.434 324.926 L 279.246 324.926 L 279.246 338.007 L 257.008 338.007 L 257.008 392.000 L 239.715 392.000 L 239.715 338.007 L 217.434 338.007 L 217.434 324.926 Z M 288.202 324.926 L 305.495 324.926 L 305.495 365.133 Q 305.495 373.442 308.212 377.021 Q 310.929 380.586 317.081 380.586 Q 323.277 380.586 325.994 377.021 Q 328.711 373.442 328.711 365.133 L 328.711 324.926 L 346.004 324.926 L 346.004 365.133 Q 346.004 379.379 338.859 386.351 Q 331.729 393.308 317.081 393.308 Q 302.476 393.308 295.332 386.351 Q 288.202 379.379 288.202 365.133 L 288.202 324.926 Z M 362.909 324.926 L 380.202 324.926 L 380.202 378.933 L 410.562 378.933 L 410.562 392.000 L 362.909 392.000 L 362.909 324.926 Z M 448.886 336.254 Q 440.979 336.254 436.624 342.090 Q 432.268 347.926 432.268 358.535 Q 432.268 369.086 436.624 374.937 Q 440.979 380.773 448.886 380.773 Q 456.835 380.773 461.191 374.937 Q 465.546 369.086 465.546 358.535 Q 465.546 347.926 461.191 342.090 Q 456.835 336.254 448.886 336.254 Z M 448.886 323.719 Q 465.058 323.719 474.214 332.976 Q 483.386 342.219 483.386 358.535 Q 483.386 374.793 474.214 384.051 Q 465.058 393.308 448.886 393.308 Q 432.757 393.308 423.571 384.051 Q 414.386 374.793 414.386 358.535 Q 414.386 342.219 423.571 332.976 Q 432.757 323.719 448.886 323.719 Z M 528.494 324.926 L 557.187 324.926 Q 569.995 324.926 576.838 330.619 Q 583.694 336.297 583.694 346.805 Q 583.694 357.371 576.838 363.049 Q 569.995 368.727 557.187 368.727 L 545.788 368.727 L 545.788 392.000 L 528.494 392.000 L 528.494 324.926 Z M 545.788 337.461 L 545.788 356.192 L 555.347 356.192 Q 560.378 356.192 563.124 353.748 Q 565.869 351.304 565.869 346.805 Q 565.869 342.320 563.124 339.891 Q 560.378 337.461 555.347 337.461 L 545.788 337.461 Z M 620.494 354.668 Q 625.928 354.668 628.286 352.656 Q 630.643 350.629 630.643 346.000 Q 630.643 341.414 628.286 339.445 Q 625.928 337.461 620.494 337.461 L 613.221 337.461 L 613.221 354.668 L 620.494 354.668 Z M 613.221 366.614 L 613.221 392.000 L 595.928 392.000 L 595.928 324.926 L 622.334 324.926 Q 635.588 324.926 641.755 329.382 Q 647.936 333.824 647.936 343.441 Q 647.936 350.082 644.716 354.352 Q 641.511 358.621 635.042 360.648 Q 638.592 361.453 641.396 364.314 Q 644.213 367.160 647.088 372.953 L 656.475 392.000 L 638.061 392.000 L 629.881 375.339 Q 627.409 370.308 624.864 368.468 Q 622.334 366.614 618.108 366.614 L 613.221 366.614 Z M 697.401 336.254 Q 689.494 336.254 685.139 342.090 Q 680.783 347.926 680.783 358.535 Q 680.783 369.086 685.139 374.937 Q 689.494 380.773 697.401 380.773 Q 705.350 380.773 709.706 374.937 Q 714.061 369.086 714.061 358.535 Q 714.061 347.926 709.706 342.090 Q 705.350 336.254 697.401 336.254 Z M 697.401 323.719 Q 713.572 323.719 722.729 332.976 Q 731.901 342.219 731.901 358.535 Q 731.901 374.793 722.729 384.051 Q 713.572 393.308 697.401 393.308 Q 681.272 393.308 672.086 384.051 Q 662.901 374.793 662.901 358.535 Q 662.901 342.219 672.086 332.976 Q 681.272 323.719 697.401 323.719 Z M 744.982 324.926 L 773.674 324.926 Q 786.483 324.926 793.325 330.619 Q 800.182 336.297 800.182 346.805 Q 800.182 357.371 793.325 363.049 Q 786.483 368.727 773.674 368.727 L 762.275 368.727 L 762.275 392.000 L 744.982 392.000 L 744.982 324.926 Z M 762.275 337.461 L 762.275 356.192 L 771.834 356.192 Q 776.866 356.192 779.611 353.748 Q 782.357 351.304 782.357 346.805 Q 782.357 342.320 779.611 339.891 Q 776.866 337.461 771.834 337.461 L 762.275 337.461 Z M 812.415 324.926 L 829.708 324.926 L 829.708 365.133 Q 829.708 373.442 832.425 377.021 Q 835.142 380.586 841.294 380.586 Q 847.490 380.586 850.207 377.021 Q 852.924 373.442 852.924 365.133 L 852.924 324.926 L 870.217 324.926 L 870.217 365.133 Q 870.217 379.379 863.072 386.351 Q 855.942 393.308 841.294 393.308 Q 826.689 393.308 819.545 386.351 Q 812.415 379.379 812.415 365.133 L 812.415 324.926 Z M 887.122 324.926 L 933.783 324.926 L 933.783 338.007 L 904.415 338.007 L 904.415 350.485 L 932.044 350.485 L 932.044 363.566 L 904.415 363.566 L 904.415 378.933 L 934.775 378.933 L 934.775 392.000 L 887.122 392.000 L 887.122 324.926 Z M 996.631 327.039 L 996.631 341.242 Q 991.111 338.769 985.849 337.519 Q 980.603 336.254 975.931 336.254 Q 969.735 336.254 966.759 337.964 Q 963.798 339.661 963.798 343.254 Q 963.798 345.957 965.796 347.466 Q 967.794 348.961 973.056 350.039 L 980.416 351.520 Q 991.599 353.777 996.314 358.363 Q 1001.044 362.934 1001.044 371.386 Q 1001.044 382.469 994.460 387.889 Q 987.876 393.308 974.349 393.308 Q 967.981 393.308 961.556 392.086 Q 955.130 390.879 948.704 388.493 L 948.704 373.902 Q 955.130 377.309 961.124 379.048 Q 967.119 380.773 972.696 380.773 Q 978.360 380.773 981.364 378.890 Q 984.369 376.993 984.369 373.485 Q 984.369 370.351 982.327 368.641 Q 980.286 366.930 974.177 365.579 L 967.478 364.098 Q 957.416 361.942 952.758 357.227 Q 948.115 352.512 948.115 344.519 Q 948.115 334.500 954.584 329.109 Q 961.053 323.719 973.185 323.719 Q 978.719 323.719 984.556 324.553 Q 990.392 325.386 996.631 327.039 Z M 1008.217 324.926 L 1070.029 324.926 L 1070.029 338.007 L 1047.791 338.007 L 1047.791 392.000 L 1030.498 392.000 L 1030.498 338.007 L 1008.217 338.007 L 1008.217 324.926 Z M 1112.536 379.781 L 1085.497 379.781 L 1081.227 392.000 L 1063.834 392.000 L 1088.674 324.926 L 1109.302 324.926 L 1134.142 392.000 L 1116.763 392.000 L 1112.536 379.781 Z M 1089.809 367.332 L 1108.181 367.332 L 1099.009 340.652 L 1089.809 367.332 Z" fill="#161513"/>
<path d="M 149.532 588.957 Q 150.928 589.432 152.248 590.979 Q 153.567 592.526 154.901 595.234 L 159.308 604.000 L 154.640 604.000 L 150.542 595.771 Q 148.947 592.546 147.456 591.494 Q 145.964 590.442 143.386 590.442 L 138.656 590.442 L 138.656 604.000 L 134.317 604.000 L 134.317 571.921 L 144.114 571.921 Q 149.614 571.921 152.323 574.224 Q 155.032 576.521 155.032 581.161 Q 155.032 584.193 153.623 586.194 Q 152.213 588.188 149.532 588.957 Z M 138.656 575.489 L 138.656 586.874 L 144.114 586.874 Q 147.249 586.874 148.851 585.424 Q 150.453 583.973 150.453 581.161 Q 150.453 578.349 148.851 576.919 Q 147.249 575.489 144.114 575.489 L 138.656 575.489 Z M 183.329 590.979 L 183.329 592.911 L 165.152 592.911 Q 165.413 596.994 167.613 599.133 Q 169.813 601.271 173.746 601.271 Q 176.021 601.271 178.159 600.714 Q 180.298 600.157 182.408 599.036 L 182.408 602.776 Q 180.277 603.677 178.042 604.151 Q 175.808 604.626 173.512 604.626 Q 167.751 604.626 164.389 601.278 Q 161.027 597.923 161.027 592.202 Q 161.027 586.297 164.217 582.832 Q 167.407 579.360 172.824 579.360 Q 177.678 579.360 180.504 582.488 Q 183.329 585.609 183.329 590.979 Z M 179.376 589.817 Q 179.335 586.579 177.561 584.647 Q 175.787 582.708 172.866 582.708 Q 169.559 582.708 167.572 584.578 Q 165.585 586.448 165.282 589.844 L 179.376 589.817 Z M 205.157 580.646 L 205.157 584.386 Q 203.487 583.526 201.679 583.100 Q 199.877 582.667 197.939 582.667 Q 194.996 582.667 193.525 583.567 Q 192.054 584.468 192.054 586.276 Q 192.054 587.651 193.106 588.435 Q 194.157 589.219 197.341 589.927 L 198.695 590.229 Q 202.903 591.130 204.676 592.773 Q 206.450 594.416 206.450 597.359 Q 206.450 600.714 203.796 602.673 Q 201.142 604.626 196.502 604.626 Q 194.570 604.626 192.473 604.247 Q 190.376 603.869 188.059 603.120 L 188.059 599.036 Q 190.252 600.178 192.377 600.748 Q 194.501 601.312 196.591 601.312 Q 199.382 601.312 200.881 600.356 Q 202.387 599.401 202.387 597.661 Q 202.387 596.053 201.301 595.193 Q 200.221 594.334 196.543 593.536 L 195.168 593.213 Q 191.497 592.443 189.861 590.841 Q 188.231 589.239 188.231 586.448 Q 188.231 583.052 190.637 581.209 Q 193.044 579.360 197.471 579.360 Q 199.657 579.360 201.589 579.683 Q 203.528 579.999 205.157 580.646 Z M 212.335 594.506 L 212.335 579.938 L 216.288 579.938 L 216.288 594.354 Q 216.288 597.771 217.615 599.483 Q 218.949 601.188 221.616 601.188 Q 224.813 601.188 226.669 599.146 Q 228.532 597.104 228.532 593.577 L 228.532 579.938 L 232.486 579.938 L 232.486 604.000 L 228.532 604.000 L 228.532 600.301 Q 227.096 602.494 225.191 603.560 Q 223.294 604.626 220.778 604.626 Q 216.632 604.626 214.480 602.048 Q 212.335 599.469 212.335 594.506 Z M 222.283 579.360 L 222.283 579.360 Z M 259.360 584.558 Q 260.845 581.890 262.908 580.625 Q 264.970 579.360 267.761 579.360 Q 271.522 579.360 273.564 581.993 Q 275.606 584.619 275.606 589.473 L 275.606 604.000 L 271.632 604.000 L 271.632 589.604 Q 271.632 586.146 270.401 584.475 Q 269.178 582.798 266.668 582.798 Q 263.595 582.798 261.808 584.839 Q 260.027 586.874 260.027 590.401 L 260.027 604.000 L 256.053 604.000 L 256.053 589.604 Q 256.053 586.125 254.829 584.461 Q 253.606 582.798 251.048 582.798 Q 248.016 582.798 246.229 584.846 Q 244.448 586.895 244.448 590.401 L 244.448 604.000 L 240.474 604.000 L 240.474 579.938 L 244.448 579.938 L 244.448 583.678 Q 245.803 581.464 247.693 580.412 Q 249.584 579.360 252.183 579.360 Q 254.809 579.360 256.644 580.694 Q 258.480 582.021 259.360 584.558 Z M 304.068 590.979 L 304.068 592.911 L 285.891 592.911 Q 286.152 596.994 288.352 599.133 Q 290.552 601.271 294.484 601.271 Q 296.760 601.271 298.898 600.714 Q 301.036 600.157 303.147 599.036 L 303.147 602.776 Q 301.016 603.677 298.781 604.151 Q 296.547 604.626 294.251 604.626 Q 288.489 604.626 285.127 601.278 Q 281.766 597.923 281.766 592.202 Q 281.766 586.297 284.956 582.832 Q 288.146 579.360 293.563 579.360 Q 298.417 579.360 301.243 582.488 Q 304.068 585.609 304.068 590.979 Z M 300.115 589.817 Q 300.074 586.579 298.300 584.647 Q 296.526 582.708 293.604 582.708 Q 290.298 582.708 288.311 584.578 Q 286.324 586.448 286.021 589.844 L 300.115 589.817 Z M 330.564 589.473 L 330.564 604.000 L 326.611 604.000 L 326.611 589.604 Q 326.611 586.187 325.278 584.496 Q 323.944 582.798 321.283 582.798 Q 318.079 582.798 316.230 584.839 Q 314.381 586.874 314.381 590.401 L 314.381 604.000 L 310.407 604.000 L 310.407 579.938 L 314.381 579.938 L 314.381 583.678 Q 315.804 581.505 317.722 580.433 Q 319.647 579.360 322.163 579.360 Q 326.309 579.360 328.433 581.924 Q 330.564 584.489 330.564 589.473 Z M 373.011 590.979 L 373.011 592.911 L 354.833 592.911 Q 355.094 596.994 357.294 599.133 Q 359.494 601.271 363.427 601.271 Q 365.702 601.271 367.841 600.714 Q 369.979 600.157 372.089 599.036 L 372.089 602.776 Q 369.958 603.677 367.724 604.151 Q 365.489 604.626 363.193 604.626 Q 357.432 604.626 354.070 601.278 Q 350.708 597.923 350.708 592.202 Q 350.708 586.297 353.898 582.832 Q 357.088 579.360 362.506 579.360 Q 367.359 579.360 370.185 582.488 Q 373.011 585.609 373.011 590.979 Z M 369.058 589.817 Q 369.016 586.579 367.243 584.647 Q 365.469 582.708 362.547 582.708 Q 359.240 582.708 357.253 584.578 Q 355.266 586.448 354.964 589.844 L 369.058 589.817 Z M 379.501 579.938 L 383.454 579.938 L 383.454 604.433 Q 383.454 609.026 381.701 611.088 Q 379.954 613.151 376.063 613.151 L 374.558 613.151 L 374.558 609.803 L 375.616 609.803 Q 377.871 609.803 378.683 608.758 Q 379.501 607.719 379.501 604.433 L 379.501 579.938 Z M 379.501 570.567 L 383.454 570.567 L 383.454 575.579 L 379.501 575.579 L 379.501 570.567 Z M 412.308 590.979 L 412.308 592.911 L 394.131 592.911 Q 394.392 596.994 396.592 599.133 Q 398.792 601.271 402.724 601.271 Q 405.000 601.271 407.138 600.714 Q 409.276 600.157 411.387 599.036 L 411.387 602.776 Q 409.256 603.677 407.021 604.151 Q 404.787 604.626 402.491 604.626 Q 396.729 604.626 393.368 601.278 Q 390.006 597.923 390.006 592.202 Q 390.006 586.297 393.196 582.832 Q 396.386 579.360 401.803 579.360 Q 406.657 579.360 409.483 582.488 Q 412.308 585.609 412.308 590.979 Z M 408.355 589.817 Q 408.314 586.579 406.540 584.647 Q 404.766 582.708 401.844 582.708 Q 398.538 582.708 396.551 584.578 Q 394.564 586.448 394.261 589.844 L 408.355 589.817 Z M 436.116 580.859 L 436.116 584.558 Q 434.439 583.629 432.754 583.169 Q 431.070 582.708 429.351 582.708 Q 425.501 582.708 423.370 585.149 Q 421.246 587.582 421.246 591.989 Q 421.246 596.396 423.370 598.837 Q 425.501 601.271 429.351 601.271 Q 431.070 601.271 432.754 600.810 Q 434.439 600.349 436.116 599.421 L 436.116 603.079 Q 434.459 603.849 432.686 604.234 Q 430.919 604.626 428.918 604.626 Q 423.480 604.626 420.276 601.209 Q 417.079 597.792 417.079 591.989 Q 417.079 586.104 420.311 582.736 Q 423.549 579.360 429.179 579.360 Q 431.001 579.360 432.741 579.738 Q 434.480 580.109 436.116 580.859 Z M 442.586 594.506 L 442.586 579.938 L 446.539 579.938 L 446.539 594.354 Q 446.539 597.771 447.866 599.483 Q 449.199 601.188 451.867 601.188 Q 455.064 601.188 456.920 599.146 Q 458.783 597.104 458.783 593.577 L 458.783 579.938 L 462.736 579.938 L 462.736 604.000 L 458.783 604.000 L 458.783 600.301 Q 457.346 602.494 455.442 603.560 Q 453.544 604.626 451.028 604.626 Q 446.882 604.626 444.731 602.048 Q 442.586 599.469 442.586 594.506 Z M 452.534 579.360 L 452.534 579.360 Z M 474.788 573.104 L 474.788 579.938 L 482.928 579.938 L 482.928 583.011 L 474.788 583.011 L 474.788 596.073 Q 474.788 599.016 475.593 599.854 Q 476.397 600.693 478.872 600.693 L 482.928 600.693 L 482.928 604.000 L 478.872 604.000 Q 474.293 604.000 472.554 602.295 Q 470.814 600.583 470.814 596.073 L 470.814 583.011 L 467.913 583.011 L 467.913 579.938 L 470.814 579.938 L 470.814 573.104 L 474.788 573.104 Z M 488.126 579.938 L 492.079 579.938 L 492.079 604.000 L 488.126 604.000 L 488.126 579.938 Z M 488.126 570.567 L 492.079 570.567 L 492.079 575.579 L 488.126 575.579 L 488.126 570.567 Z M 497.517 579.938 L 501.704 579.938 L 509.225 600.129 L 516.746 579.938 L 520.933 579.938 L 511.906 604.000 L 506.537 604.000 L 497.517 579.938 Z M 535.714 582.708 Q 532.538 582.708 530.689 585.190 Q 528.839 587.672 528.839 591.989 Q 528.839 596.307 530.675 598.789 Q 532.517 601.271 535.714 601.271 Q 538.877 601.271 540.719 598.782 Q 542.569 596.286 542.569 591.989 Q 542.569 587.713 540.719 585.211 Q 538.877 582.708 535.714 582.708 Z M 535.714 579.360 Q 540.871 579.360 543.813 582.715 Q 546.763 586.063 546.763 591.989 Q 546.763 597.895 543.813 601.264 Q 540.871 604.626 535.714 604.626 Q 530.538 604.626 527.602 601.264 Q 524.673 597.895 524.673 591.989 Q 524.673 586.063 527.602 582.715 Q 530.538 579.360 535.714 579.360 Z M 574.324 571.921 L 577.975 571.921 L 566.803 608.084 L 563.152 608.084 L 574.324 571.921 Z M 613.381 591.989 Q 613.381 587.631 611.587 585.149 Q 609.793 582.667 606.658 582.667 Q 603.516 582.667 601.721 585.149 Q 599.927 587.631 599.927 591.989 Q 599.927 596.348 601.721 598.830 Q 603.516 601.312 606.658 601.312 Q 609.793 601.312 611.587 598.830 Q 613.381 596.348 613.381 591.989 Z M 599.927 583.588 Q 601.178 581.443 603.076 580.405 Q 604.980 579.360 607.620 579.360 Q 612.006 579.360 614.743 582.839 Q 617.486 586.317 617.486 591.989 Q 617.486 597.661 614.743 601.147 Q 612.006 604.626 607.620 604.626 Q 604.980 604.626 603.076 603.581 Q 601.178 602.536 599.927 600.391 L 599.927 604.000 L 595.953 604.000 L 595.953 570.567 L 599.927 570.567 L 599.927 583.588 Z M 634.976 591.907 Q 630.184 591.907 628.334 593.000 Q 626.485 594.093 626.485 596.740 Q 626.485 598.844 627.874 600.081 Q 629.263 601.312 631.641 601.312 Q 634.934 601.312 636.921 598.981 Q 638.908 596.651 638.908 592.787 L 638.908 591.907 L 634.976 591.907 Z M 642.861 590.271 L 642.861 604.000 L 638.908 604.000 L 638.908 600.349 Q 637.554 602.536 635.533 603.581 Q 633.511 604.626 630.589 604.626 Q 626.898 604.626 624.711 602.549 Q 622.532 600.473 622.532 596.994 Q 622.532 592.938 625.247 590.876 Q 627.970 588.813 633.360 588.813 L 638.908 588.813 L 638.908 588.421 Q 638.908 585.692 637.114 584.200 Q 635.319 582.708 632.074 582.708 Q 630.012 582.708 628.053 583.203 Q 626.100 583.698 624.299 584.688 L 624.299 581.031 Q 626.464 580.192 628.506 579.779 Q 630.548 579.360 632.480 579.360 Q 637.705 579.360 640.283 582.069 Q 642.861 584.771 642.861 590.271 Z M 651.001 579.938 L 654.954 579.938 L 654.954 604.433 Q 654.954 609.026 653.201 611.088 Q 651.455 613.151 647.564 613.151 L 646.058 613.151 L 646.058 609.803 L 647.117 609.803 Q 649.372 609.803 650.183 608.758 Q 651.001 607.719 651.001 604.433 L 651.001 579.938 Z M 651.001 570.567 L 654.954 570.567 L 654.954 575.579 L 651.001 575.579 L 651.001 570.567 Z M 674.163 591.907 Q 669.371 591.907 667.522 593.000 Q 665.673 594.093 665.673 596.740 Q 665.673 598.844 667.061 600.081 Q 668.450 601.312 670.829 601.312 Q 674.122 601.312 676.109 598.981 Q 678.096 596.651 678.096 592.787 L 678.096 591.907 L 674.163 591.907 Z M 682.049 590.271 L 682.049 604.000 L 678.096 604.000 L 678.096 600.349 Q 676.741 602.536 674.720 603.581 Q 672.699 604.626 669.777 604.626 Q 666.085 604.626 663.899 602.549 Q 661.719 600.473 661.719 596.994 Q 661.719 592.938 664.435 590.876 Q 667.158 588.813 672.548 588.813 L 678.096 588.813 L 678.096 588.421 Q 678.096 585.692 676.301 584.200 Q 674.507 582.708 671.262 582.708 Q 669.199 582.708 667.240 583.203 Q 665.288 583.698 663.486 584.688 L 663.486 581.031 Q 665.652 580.192 667.694 579.779 Q 669.736 579.360 671.668 579.360 Q 676.893 579.360 679.471 582.069 Q 682.049 584.771 682.049 590.271 Z M 706.022 583.588 L 706.022 570.567 L 709.975 570.567 L 709.975 604.000 L 706.022 604.000 L 706.022 600.391 Q 704.778 602.536 702.873 603.581 Q 700.976 604.626 698.308 604.626 Q 693.949 604.626 691.206 601.147 Q 688.470 597.661 688.470 591.989 Q 688.470 586.317 691.206 582.839 Q 693.949 579.360 698.308 579.360 Q 700.976 579.360 702.873 580.405 Q 704.778 581.443 706.022 583.588 Z M 692.554 591.989 Q 692.554 596.348 694.348 598.830 Q 696.143 601.312 699.278 601.312 Q 702.413 601.312 704.214 598.830 Q 706.022 596.348 706.022 591.989 Q 706.022 587.631 704.214 585.149 Q 702.413 582.667 699.278 582.667 Q 696.143 582.667 694.348 585.149 Q 692.554 587.631 692.554 591.989 Z M 729.060 591.907 Q 724.268 591.907 722.419 593.000 Q 720.569 594.093 720.569 596.740 Q 720.569 598.844 721.958 600.081 Q 723.347 601.312 725.726 601.312 Q 729.019 601.312 731.006 598.981 Q 732.992 596.651 732.992 592.787 L 732.992 591.907 L 729.060 591.907 Z M 736.946 590.271 L 736.946 604.000 L 732.992 604.000 L 732.992 600.349 Q 731.638 602.536 729.617 603.581 Q 727.596 604.626 724.674 604.626 Q 720.982 604.626 718.796 602.549 Q 716.616 600.473 716.616 596.994 Q 716.616 592.938 719.332 590.876 Q 722.054 588.813 727.444 588.813 L 732.992 588.813 L 732.992 588.421 Q 732.992 585.692 731.198 584.200 Q 729.404 582.708 726.159 582.708 Q 724.096 582.708 722.137 583.203 Q 720.184 583.698 718.383 584.688 L 718.383 581.031 Q 720.549 580.192 722.591 579.779 Q 724.633 579.360 726.564 579.360 Q 731.789 579.360 734.367 582.069 Q 736.946 584.771 736.946 590.271 Z M 762.892 600.391 L 762.892 613.151 L 758.918 613.151 L 758.918 579.938 L 762.892 579.938 L 762.892 583.588 Q 764.143 581.443 766.041 580.405 Q 767.945 579.360 770.585 579.360 Q 774.971 579.360 777.707 582.839 Q 780.451 586.317 780.451 591.989 Q 780.451 597.661 777.707 601.147 Q 774.971 604.626 770.585 604.626 Q 767.945 604.626 766.041 603.581 Q 764.143 602.536 762.892 600.391 Z M 776.346 591.989 Q 776.346 587.631 774.552 585.149 Q 772.758 582.667 769.623 582.667 Q 766.481 582.667 764.686 585.149 Q 762.892 587.631 762.892 591.989 Q 762.892 596.348 764.686 598.830 Q 766.481 601.312 769.623 601.312 Q 772.758 601.312 774.552 598.830 Q 776.346 596.348 776.346 591.989 Z M 800.945 583.629 Q 800.278 583.244 799.494 583.066 Q 798.711 582.880 797.769 582.880 Q 794.414 582.880 792.619 585.059 Q 790.825 587.239 790.825 591.322 L 790.825 604.000 L 786.851 604.000 L 786.851 579.938 L 790.825 579.938 L 790.825 583.678 Q 792.076 581.484 794.070 580.426 Q 796.071 579.360 798.931 579.360 Q 799.336 579.360 799.831 579.415 Q 800.326 579.463 800.924 579.573 L 800.945 583.629 Z M 805.091 579.938 L 809.044 579.938 L 809.044 604.000 L 805.091 604.000 L 805.091 579.938 Z M 805.091 570.567 L 809.044 570.567 L 809.044 575.579 L 805.091 575.579 L 805.091 570.567 Z M 837.321 589.473 L 837.321 604.000 L 833.367 604.000 L 833.367 589.604 Q 833.367 586.187 832.034 584.496 Q 830.700 582.798 828.039 582.798 Q 824.836 582.798 822.986 584.839 Q 821.137 586.874 821.137 590.401 L 821.137 604.000 L 817.163 604.000 L 817.163 579.938 L 821.137 579.938 L 821.137 583.678 Q 822.560 581.505 824.478 580.433 Q 826.403 579.360 828.919 579.360 Q 833.065 579.360 835.189 581.924 Q 837.321 584.489 837.321 589.473 Z M 862.518 580.859 L 862.518 584.558 Q 860.840 583.629 859.156 583.169 Q 857.471 582.708 855.753 582.708 Q 851.903 582.708 849.771 585.149 Q 847.647 587.582 847.647 591.989 Q 847.647 596.396 849.771 598.837 Q 851.903 601.271 855.753 601.271 Q 857.471 601.271 859.156 600.810 Q 860.840 600.349 862.518 599.421 L 862.518 603.079 Q 860.861 603.849 859.087 604.234 Q 857.320 604.626 855.319 604.626 Q 849.881 604.626 846.678 601.209 Q 843.481 597.792 843.481 591.989 Q 843.481 586.104 846.712 582.736 Q 849.950 579.360 855.581 579.360 Q 857.403 579.360 859.142 579.738 Q 860.881 580.109 862.518 580.859 Z M 869.393 579.938 L 873.346 579.938 L 873.346 604.000 L 869.393 604.000 L 869.393 579.938 Z M 869.393 570.567 L 873.346 570.567 L 873.346 575.579 L 869.393 575.579 L 869.393 570.567 Z M 885.439 600.391 L 885.439 613.151 L 881.465 613.151 L 881.465 579.938 L 885.439 579.938 L 885.439 583.588 Q 886.690 581.443 888.587 580.405 Q 890.492 579.360 893.132 579.360 Q 897.518 579.360 900.254 582.839 Q 902.998 586.317 902.998 591.989 Q 902.998 597.661 900.254 601.147 Q 897.518 604.626 893.132 604.626 Q 890.492 604.626 888.587 603.581 Q 886.690 602.536 885.439 600.391 Z M 898.893 591.989 Q 898.893 587.631 897.099 585.149 Q 895.304 582.667 892.169 582.667 Q 889.028 582.667 887.233 585.149 Q 885.439 587.631 885.439 591.989 Q 885.439 596.348 887.233 598.830 Q 889.028 601.312 892.169 601.312 Q 895.304 601.312 897.099 598.830 Q 898.893 596.348 898.893 591.989 Z M 920.487 591.907 Q 915.696 591.907 913.846 593.000 Q 911.997 594.093 911.997 596.740 Q 911.997 598.844 913.386 600.081 Q 914.774 601.312 917.153 601.312 Q 920.446 601.312 922.433 598.981 Q 924.420 596.651 924.420 592.787 L 924.420 591.907 L 920.487 591.907 Z M 928.373 590.271 L 928.373 604.000 L 924.420 604.000 L 924.420 600.349 Q 923.066 602.536 921.044 603.581 Q 919.023 604.626 916.101 604.626 Q 912.409 604.626 910.223 602.549 Q 908.044 600.473 908.044 596.994 Q 908.044 592.938 910.759 590.876 Q 913.482 588.813 918.872 588.813 L 924.420 588.813 L 924.420 588.421 Q 924.420 585.692 922.626 584.200 Q 920.831 582.708 917.586 582.708 Q 915.524 582.708 913.564 583.203 Q 911.612 583.698 909.811 584.688 L 909.811 581.031 Q 911.976 580.192 914.018 579.779 Q 916.060 579.360 917.992 579.360 Q 923.217 579.360 925.795 582.069 Q 928.373 584.771 928.373 590.271 Z M 936.513 570.567 L 940.466 570.567 L 940.466 604.000 L 936.513 604.000 L 936.513 570.567 Z M 949.294 598.541 L 953.831 598.541 L 953.831 604.000 L 949.294 604.000 L 949.294 598.541 Z" fill="#675F55"/>
<rect x="120" y="760" width="1860" height="760" rx="38" fill="#FFFFFF" stroke="#D9CEC0" stroke-width="3" opacity="0.72"/>
<path d="M 208.420 866.558 Q 210.558 866.558 211.653 865.620 Q 212.755 864.683 212.755 862.852 Q 212.755 861.045 211.653 860.100 Q 210.558 859.148 208.420 859.148 L 203.433 859.148 L 203.433 866.558 L 208.420 866.558 Z M 208.727 881.857 Q 211.442 881.857 212.815 880.710 Q 214.188 879.562 214.188 877.245 Q 214.188 874.965 212.830 873.832 Q 211.472 872.692 208.727 872.692 L 203.433 872.692 L 203.433 881.857 L 208.727 881.857 Z M 217.120 869.273 Q 220.023 870.120 221.613 872.393 Q 223.210 874.665 223.210 877.965 Q 223.210 883.028 219.790 885.518 Q 216.370 888.000 209.380 888.000 L 194.410 888.000 L 194.410 853.005 L 207.955 853.005 Q 215.245 853.005 218.515 855.210 Q 221.785 857.415 221.785 862.268 Q 221.785 864.817 220.585 866.610 Q 219.392 868.403 217.120 869.273 Z M 230.620 851.528 L 239.005 851.528 L 239.005 888.000 L 230.620 888.000 L 230.620 851.528 Z M 259.562 867.120 Q 256.772 867.120 255.310 869.122 Q 253.847 871.125 253.847 874.898 Q 253.847 878.670 255.310 880.680 Q 256.772 882.683 259.562 882.683 Q 262.308 882.683 263.755 880.680 Q 265.210 878.670 265.210 874.898 Q 265.210 871.125 263.755 869.122 Q 262.308 867.120 259.562 867.120 Z M 259.562 861.120 Q 266.335 861.120 270.145 864.780 Q 273.955 868.433 273.955 874.898 Q 273.955 881.370 270.145 885.030 Q 266.335 888.683 259.562 888.683 Q 252.767 888.683 248.935 885.030 Q 245.102 881.370 245.102 874.898 Q 245.102 868.433 248.935 864.780 Q 252.767 861.120 259.562 861.120 Z M 292.375 867.210 Q 289.705 867.210 288.288 869.183 Q 286.870 871.148 286.870 874.898 Q 286.870 878.648 288.288 880.620 Q 289.705 882.585 292.375 882.585 Q 295.075 882.585 296.493 880.620 Q 297.910 878.648 297.910 874.898 Q 297.910 871.148 296.493 869.183 Q 295.075 867.210 292.375 867.210 Z M 297.910 884.205 Q 296.178 886.523 294.085 887.602 Q 292.000 888.683 289.262 888.683 Q 284.410 888.683 281.290 884.827 Q 278.178 880.965 278.178 874.898 Q 278.178 868.830 281.290 864.997 Q 284.410 861.165 289.262 861.165 Q 292.000 861.165 294.085 862.245 Q 296.178 863.317 297.910 865.643 L 297.910 861.750 L 306.347 861.750 L 306.347 897.982 L 297.910 897.982 L 297.910 884.205 Z M 314.125 877.778 L 314.125 861.750 L 322.562 861.750 L 322.562 864.375 Q 322.562 866.505 322.540 869.730 Q 322.517 872.955 322.517 874.028 Q 322.517 877.192 322.683 878.587 Q 322.847 879.982 323.245 880.620 Q 323.755 881.438 324.587 881.888 Q 325.420 882.330 326.500 882.330 Q 329.125 882.330 330.625 880.312 Q 332.125 878.295 332.125 874.710 L 332.125 861.750 L 340.517 861.750 L 340.517 888.000 L 332.125 888.000 L 332.125 884.205 Q 330.227 886.500 328.105 887.595 Q 325.982 888.683 323.433 888.683 Q 318.880 888.683 316.502 885.893 Q 314.125 883.102 314.125 877.778 Z M 374.778 874.808 L 374.778 877.192 L 355.165 877.192 Q 355.465 880.148 357.295 881.625 Q 359.125 883.102 362.403 883.102 Q 365.050 883.102 367.825 882.315 Q 370.607 881.528 373.540 879.938 L 373.540 886.403 Q 370.562 887.528 367.585 888.105 Q 364.607 888.683 361.630 888.683 Q 354.505 888.683 350.553 885.060 Q 346.607 881.438 346.607 874.898 Q 346.607 868.477 350.485 864.803 Q 354.362 861.120 361.165 861.120 Q 367.352 861.120 371.065 864.847 Q 374.778 868.567 374.778 874.808 Z M 366.153 872.018 Q 366.153 869.625 364.757 868.163 Q 363.362 866.692 361.112 866.692 Q 358.675 866.692 357.153 868.065 Q 355.630 869.438 355.255 872.018 L 366.153 872.018 Z M 399.438 881.768 L 407.410 881.768 L 407.410 859.148 L 399.227 860.835 L 399.227 854.692 L 407.357 853.005 L 415.938 853.005 L 415.938 881.768 L 423.910 881.768 L 423.910 888.000 L 399.438 888.000 L 399.438 881.768 Z" fill="#173F2F"/>
<rect x="120" y="1610" width="900" height="680" rx="38" fill="#FFFFFF" stroke="#D9CEC0" stroke-width="3" opacity="0.72"/>
<rect x="1080" y="1610" width="900" height="680" rx="38" fill="#FFFFFF" stroke="#D9CEC0" stroke-width="3" opacity="0.72"/>
<path d="M 159.480 2512.240 Q 157.197 2513.423 154.729 2514.021 Q 152.261 2514.626 149.573 2514.626 Q 141.557 2514.626 136.875 2510.143 Q 132.193 2505.661 132.193 2497.995 Q 132.193 2490.302 136.875 2485.826 Q 141.557 2481.344 149.573 2481.344 Q 152.261 2481.344 154.729 2481.949 Q 157.197 2482.547 159.480 2483.729 L 159.480 2490.364 Q 157.177 2488.796 154.942 2488.068 Q 152.708 2487.339 150.240 2487.339 Q 145.812 2487.339 143.276 2490.178 Q 140.746 2493.011 140.746 2497.995 Q 140.746 2502.959 143.276 2505.798 Q 145.812 2508.631 150.240 2508.631 Q 152.708 2508.631 154.942 2507.902 Q 157.177 2507.166 159.480 2505.599 L 159.480 2512.240 Z M 177.438 2494.860 Q 174.880 2494.860 173.539 2496.696 Q 172.199 2498.531 172.199 2501.989 Q 172.199 2505.448 173.539 2507.290 Q 174.880 2509.126 177.438 2509.126 Q 179.954 2509.126 181.281 2507.290 Q 182.614 2505.448 182.614 2501.989 Q 182.614 2498.531 181.281 2496.696 Q 179.954 2494.860 177.438 2494.860 Z M 177.438 2489.360 Q 183.646 2489.360 187.138 2492.715 Q 190.631 2496.063 190.631 2501.989 Q 190.631 2507.923 187.138 2511.278 Q 183.646 2514.626 177.438 2514.626 Q 171.209 2514.626 167.696 2511.278 Q 164.183 2507.923 164.183 2501.989 Q 164.183 2496.063 167.696 2492.715 Q 171.209 2489.360 177.438 2489.360 Z M 220.406 2499.349 L 220.406 2514.000 L 212.672 2514.000 L 212.672 2511.614 L 212.672 2502.787 Q 212.672 2499.673 212.534 2498.490 Q 212.397 2497.307 212.053 2496.751 Q 211.599 2495.994 210.822 2495.575 Q 210.053 2495.156 209.062 2495.156 Q 206.656 2495.156 205.281 2497.019 Q 203.906 2498.875 203.906 2502.161 L 203.906 2514.000 L 196.220 2514.000 L 196.220 2489.938 L 203.906 2489.938 L 203.906 2493.457 Q 205.646 2491.354 207.598 2490.357 Q 209.558 2489.360 211.923 2489.360 Q 216.089 2489.360 218.248 2491.918 Q 220.406 2494.468 220.406 2499.349 Z M 235.937 2483.104 L 235.937 2489.938 L 243.871 2489.938 L 243.871 2495.438 L 235.937 2495.438 L 235.937 2505.640 Q 235.937 2507.318 236.604 2507.909 Q 237.271 2508.500 239.251 2508.500 L 243.204 2508.500 L 243.204 2514.000 L 236.604 2514.000 Q 232.053 2514.000 230.148 2512.102 Q 228.251 2510.198 228.251 2505.640 L 228.251 2495.438 L 224.421 2495.438 L 224.421 2489.938 L 228.251 2489.938 L 228.251 2483.104 L 235.937 2483.104 Z M 259.353 2503.172 Q 256.947 2503.172 255.730 2503.990 Q 254.520 2504.801 254.520 2506.396 Q 254.520 2507.854 255.496 2508.686 Q 256.479 2509.511 258.219 2509.511 Q 260.384 2509.511 261.869 2507.957 Q 263.354 2506.396 263.354 2504.052 L 263.354 2503.172 L 259.353 2503.172 Z M 271.109 2500.271 L 271.109 2514.000 L 263.354 2514.000 L 263.354 2510.432 Q 261.808 2512.625 259.869 2513.629 Q 257.937 2514.626 255.166 2514.626 Q 251.426 2514.626 249.096 2512.446 Q 246.765 2510.260 246.765 2506.781 Q 246.765 2502.546 249.673 2500.573 Q 252.588 2498.593 258.817 2498.593 L 263.354 2498.593 L 263.354 2497.995 Q 263.354 2496.166 261.911 2495.321 Q 260.474 2494.468 257.421 2494.468 Q 254.953 2494.468 252.822 2494.963 Q 250.697 2495.458 248.869 2496.448 L 248.869 2490.584 Q 251.344 2489.979 253.832 2489.669 Q 256.328 2489.360 258.817 2489.360 Q 265.327 2489.360 268.215 2491.924 Q 271.109 2494.489 271.109 2500.271 Z M 297.709 2490.687 L 297.709 2496.964 Q 296.141 2495.891 294.560 2495.376 Q 292.979 2494.860 291.281 2494.860 Q 288.063 2494.860 286.269 2496.737 Q 284.474 2498.614 284.474 2501.989 Q 284.474 2505.365 286.269 2507.249 Q 288.063 2509.126 291.281 2509.126 Q 293.089 2509.126 294.711 2508.589 Q 296.334 2508.046 297.709 2506.994 L 297.709 2513.292 Q 295.901 2513.959 294.044 2514.289 Q 292.188 2514.626 290.318 2514.626 Q 283.808 2514.626 280.129 2511.284 Q 276.458 2507.943 276.458 2501.989 Q 276.458 2496.036 280.129 2492.701 Q 283.808 2489.360 290.318 2489.360 Q 292.209 2489.360 294.044 2489.690 Q 295.880 2490.020 297.709 2490.687 Z M 312.744 2483.104 L 312.744 2489.938 L 320.678 2489.938 L 320.678 2495.438 L 312.744 2495.438 L 312.744 2505.640 Q 312.744 2507.318 313.411 2507.909 Q 314.078 2508.500 316.058 2508.500 L 320.011 2508.500 L 320.011 2514.000 L 313.411 2514.000 Q 308.860 2514.000 306.956 2512.102 Q 305.058 2510.198 305.058 2505.640 L 305.058 2495.438 L 301.229 2495.438 L 301.229 2489.938 L 305.058 2489.938 L 305.058 2483.104 L 312.744 2483.104 Z M 336.827 2494.860 Q 334.270 2494.860 332.929 2496.696 Q 331.589 2498.531 331.589 2501.989 Q 331.589 2505.448 332.929 2507.290 Q 334.270 2509.126 336.827 2509.126 Q 339.344 2509.126 340.671 2507.290 Q 342.004 2505.448 342.004 2501.989 Q 342.004 2498.531 340.671 2496.696 Q 339.344 2494.860 336.827 2494.860 Z M 336.827 2489.360 Q 343.036 2489.360 346.528 2492.715 Q 350.021 2496.063 350.021 2501.989 Q 350.021 2507.923 346.528 2511.278 Q 343.036 2514.626 336.827 2514.626 Q 330.599 2514.626 327.086 2511.278 Q 323.572 2507.923 323.572 2501.989 Q 323.572 2496.063 327.086 2492.715 Q 330.599 2489.360 336.827 2489.360 Z M 378.531 2481.921 L 383.303 2481.921 L 371.979 2518.084 L 367.229 2518.084 L 378.531 2481.921 Z M 421.761 2490.687 L 421.761 2496.964 Q 420.194 2495.891 418.613 2495.376 Q 417.031 2494.860 415.333 2494.860 Q 412.116 2494.860 410.321 2496.737 Q 408.527 2498.614 408.527 2501.989 Q 408.527 2505.365 410.321 2507.249 Q 412.116 2509.126 415.333 2509.126 Q 417.141 2509.126 418.764 2508.589 Q 420.386 2508.046 421.761 2506.994 L 421.761 2513.292 Q 419.953 2513.959 418.097 2514.289 Q 416.241 2514.626 414.371 2514.626 Q 407.860 2514.626 404.182 2511.284 Q 400.511 2507.943 400.511 2501.989 Q 400.511 2496.036 404.182 2492.701 Q 407.860 2489.360 414.371 2489.360 Q 416.261 2489.360 418.097 2489.690 Q 419.933 2490.020 421.761 2490.687 Z M 428.402 2489.938 L 436.089 2489.938 L 436.089 2514.000 L 428.402 2514.000 L 428.402 2489.938 Z M 428.402 2480.567 L 436.089 2480.567 L 436.089 2486.844 L 428.402 2486.844 L 428.402 2480.567 Z M 467.501 2501.907 L 467.501 2504.093 L 449.522 2504.093 Q 449.798 2506.802 451.475 2508.156 Q 453.152 2509.511 456.157 2509.511 Q 458.584 2509.511 461.127 2508.789 Q 463.678 2508.067 466.366 2506.609 L 466.366 2512.536 Q 463.637 2513.567 460.908 2514.096 Q 458.178 2514.626 455.449 2514.626 Q 448.918 2514.626 445.294 2511.305 Q 441.678 2507.984 441.678 2501.989 Q 441.678 2496.104 445.233 2492.736 Q 448.787 2489.360 455.022 2489.360 Q 460.694 2489.360 464.098 2492.777 Q 467.501 2496.187 467.501 2501.907 Z M 459.594 2499.349 Q 459.594 2497.156 458.316 2495.816 Q 457.037 2494.468 454.974 2494.468 Q 452.740 2494.468 451.344 2495.726 Q 449.949 2496.984 449.605 2499.349 L 459.594 2499.349 Z M 491.206 2496.489 Q 490.195 2496.015 489.191 2495.795 Q 488.194 2495.568 487.184 2495.568 Q 484.221 2495.568 482.619 2497.472 Q 481.017 2499.370 481.017 2502.911 L 481.017 2514.000 L 473.331 2514.000 L 473.331 2489.938 L 481.017 2489.938 L 481.017 2493.891 Q 482.502 2491.526 484.420 2490.446 Q 486.345 2489.360 489.033 2489.360 Q 489.418 2489.360 489.865 2489.394 Q 490.319 2489.422 491.178 2489.532 L 491.206 2496.489 Z M 512.903 2496.489 Q 511.892 2496.015 510.889 2495.795 Q 509.892 2495.568 508.881 2495.568 Q 505.918 2495.568 504.316 2497.472 Q 502.714 2499.370 502.714 2502.911 L 502.714 2514.000 L 495.028 2514.000 L 495.028 2489.938 L 502.714 2489.938 L 502.714 2493.891 Q 504.199 2491.526 506.118 2490.446 Q 508.043 2489.360 510.731 2489.360 Q 511.116 2489.360 511.562 2489.394 Q 512.016 2489.422 512.876 2489.532 L 512.903 2496.489 Z M 540.740 2501.907 L 540.740 2504.093 L 522.762 2504.093 Q 523.037 2506.802 524.714 2508.156 Q 526.392 2509.511 529.396 2509.511 Q 531.823 2509.511 534.367 2508.789 Q 536.918 2508.067 539.606 2506.609 L 539.606 2512.536 Q 536.876 2513.567 534.147 2514.096 Q 531.418 2514.626 528.688 2514.626 Q 522.157 2514.626 518.534 2511.305 Q 514.918 2507.984 514.918 2501.989 Q 514.918 2496.104 518.472 2492.736 Q 522.026 2489.360 528.262 2489.360 Q 533.934 2489.360 537.337 2492.777 Q 540.740 2496.187 540.740 2501.907 Z M 532.834 2499.349 Q 532.834 2497.156 531.555 2495.816 Q 530.276 2494.468 528.214 2494.468 Q 525.979 2494.468 524.584 2495.726 Q 523.188 2496.984 522.844 2499.349 L 532.834 2499.349 Z" fill="#173F2F"/>
</g>
</svg>